<svg width="24" height="25" viewBox="0 0 24 25" fill="none" xmlns="http://www.w3.org/2000/svg">
<g id="file 1" clip-path="url(#clip0_500_1749)">
<g id="surface1">
<path id="Vector" d="M15.4646 0.638611C15.3545 0.522705 15.2036 0.453125 15.0473 0.453125H5.68488C3.95728 0.453125 2.53125 1.87348 2.53125 3.6009V21.3052C2.53125 23.0328 3.95728 24.4532 5.68488 24.4532H18.3921C20.1197 24.4532 21.5457 23.0328 21.5457 21.3052V7.24727C21.5457 7.09657 21.4761 6.95173 21.3776 6.8415L15.4646 0.638611ZM15.6327 2.49952L19.5921 6.65602H17.0182C16.253 6.65602 15.6327 6.04151 15.6327 5.27632V2.49952ZM18.3921 23.2937H5.68488C4.6009 23.2937 3.69068 22.3952 3.69068 21.3052V3.6009C3.69068 2.51691 4.59504 1.61255 5.68488 1.61255H14.4732V5.27632C14.4732 6.68495 15.6096 7.81544 17.0182 7.81544H20.3863V21.3052C20.3863 22.3952 19.4819 23.2937 18.3921 23.2937Z" fill="url(#paint0_linear_500_1749)"/>
<path id="Vector_2" d="M16.8092 19.2939H7.26721C6.94843 19.2939 6.6875 19.5547 6.6875 19.8737C6.6875 20.1924 6.94843 20.4534 7.26721 20.4534H16.8151C17.1339 20.4534 17.3948 20.1924 17.3948 19.8737C17.3948 19.5547 17.1339 19.2939 16.8092 19.2939Z" fill="url(#paint1_linear_500_1749)"/>
<path id="Vector_3" d="M11.6152 17.2128C11.7254 17.3288 11.8761 17.3983 12.0383 17.3983C12.2007 17.3983 12.3514 17.3288 12.4615 17.2128L15.8587 13.5665C16.0789 13.3345 16.0615 12.9635 15.8297 12.7491C15.5977 12.5288 15.2268 12.546 15.0123 12.778L12.618 15.3461V9.01575C12.618 8.69678 12.3571 8.43604 12.0383 8.43604C11.7195 8.43604 11.4586 8.69678 11.4586 9.01575V15.3461L9.07019 12.778C8.84991 12.5462 8.48461 12.5288 8.2528 12.7491C8.02099 12.9694 8.0036 13.3347 8.22387 13.5665L11.6152 17.2128Z" fill="url(#paint2_linear_500_1749)"/>
</g>
</g>
<defs>
<linearGradient id="paint0_linear_500_1749" x1="12.0385" y1="0.453125" x2="12.0385" y2="24.4532" gradientUnits="userSpaceOnUse">
<stop stop-color="#2176FF"/>
<stop offset="1" stop-color="#0A55EB"/>
</linearGradient>
<linearGradient id="paint1_linear_500_1749" x1="12.0411" y1="19.2939" x2="12.0411" y2="20.4534" gradientUnits="userSpaceOnUse">
<stop stop-color="#2176FF"/>
<stop offset="1" stop-color="#0A55EB"/>
</linearGradient>
<linearGradient id="paint2_linear_500_1749" x1="12.0413" y1="8.43604" x2="12.0413" y2="17.3983" gradientUnits="userSpaceOnUse">
<stop stop-color="#2176FF"/>
<stop offset="1" stop-color="#0A55EB"/>
</linearGradient>
<clipPath id="clip0_500_1749">
<rect width="24" height="24" fill="white" transform="translate(0 0.5)"/>
</clipPath>
</defs>
</svg>
