<svg width="24" height="24" viewBox="0 0 24 24" fill="none" xmlns="http://www.w3.org/2000/svg">
<g id="Frame">
<path id="Vector" d="M12 2.71387C9.73574 4.8641 6.72027 6.04344 3.598 5.99987C3.20074 7.21016 2.99887 8.47604 3 9.74987C3 15.3419 6.824 20.0399 12 21.3719C17.176 20.0399 21 15.3419 21 9.74987C21 8.43987 20.79 7.17987 20.402 5.99987H20.25C17.054 5.99987 14.15 4.75087 12 2.71387Z" stroke="#0A1128" stroke-width="1.5" stroke-linecap="round" stroke-linejoin="round"/>
<g id="2FA">
<path d="M6.04625 14V13.2486L7.73202 11.6228C7.87539 11.4783 7.99564 11.3483 8.09276 11.2327C8.19142 11.1171 8.26619 11.0039 8.31707 10.8931C8.36794 10.7807 8.39338 10.6594 8.39338 10.5294C8.39338 10.3849 8.36177 10.2604 8.29857 10.1561C8.23536 10.0501 8.14903 9.96901 8.03957 9.91281C7.93012 9.85501 7.80602 9.82611 7.66727 9.82611C7.52236 9.82611 7.39594 9.85662 7.28803 9.91763C7.18012 9.97864 7.09687 10.0662 7.03829 10.1802C6.9797 10.2942 6.95041 10.4298 6.95041 10.5872H6C6 10.2645 6.07014 9.98426 6.21043 9.74663C6.35072 9.50899 6.54728 9.32514 6.8001 9.19509C7.05293 9.06503 7.3443 9 7.67421 9C8.01337 9 8.30859 9.06262 8.55987 9.18786C8.8127 9.3115 9.00926 9.4833 9.14955 9.70328C9.28983 9.92325 9.35998 10.1753 9.35998 10.4595C9.35998 10.6458 9.32452 10.8296 9.25361 11.0111C9.18423 11.1925 9.06013 11.394 8.8813 11.6156C8.70247 11.8356 8.45042 12.0997 8.12513 12.408L7.43371 13.1137V13.1474H9.42241V14H6.04625Z" fill="#0A1128"/>
<path d="M9.82839 14V9.06744H12.9641V9.92726H10.8297V11.1026H12.7559V11.9624H10.8297V14H9.82839Z" fill="#0A1128"/>
<path d="M13.5152 14H12.4422L14.0771 9.06744H15.3674L17 14H15.927L14.7407 10.1946H14.7037L13.5152 14ZM13.4481 12.0612H15.9825V12.8752H13.4481V12.0612Z" fill="#0A1128"/>
</g>
</g>
</svg>
