<?xml version="1.0" encoding="UTF-8"?>
<svg xmlns:dc="http://purl.org/dc/elements/1.1/" xmlns:cc="http://creativecommons.org/ns#" xmlns:rdf="http://www.w3.org/1999/02/22-rdf-syntax-ns#" xmlns:svg="http://www.w3.org/2000/svg" xmlns="http://www.w3.org/2000/svg" xmlns:sodipodi="http://sodipodi.sourceforge.net/DTD/sodipodi-0.dtd" xmlns:inkscape="http://www.inkscape.org/namespaces/inkscape" width="512" height="512" viewBox="0 0 135.46666 135.46667" version="1.1" id="svg8" inkscape:version="1.0.2 (1.0.2+r75+1)" sodipodi:docname="wallet, add, plus, money, cash, payment, card.svg"><path id="path986-3" style="color:rgb(0,0,0);font-style:normal;font-variant:normal;font-weight:normal;font-stretch:normal;font-size:medium;line-height:normal;font-family:sans-serif;font-variant-ligatures:normal;font-variant-position:normal;font-variant-caps:normal;font-variant-numeric:normal;font-variant-alternates:normal;font-variant-east-asian:normal;font-feature-settings:normal;font-variation-settings:normal;text-indent:0;text-align:start;text-decoration:none;text-decoration-line:none;text-decoration-style:solid;text-decoration-color:rgb(0,0,0);letter-spacing:normal;word-spacing:normal;text-transform:none;writing-mode:lr-tb;direction:ltr;text-orientation:mixed;dominant-baseline:auto;baseline-shift:baseline;text-anchor:start;white-space:normal;shape-padding:0;shape-margin:0;inline-size:0;clip-rule:nonzero;display:inline;overflow:visible;visibility:visible;isolation:auto;mix-blend-mode:normal;color-interpolation:sRGB;color-interpolation-filters:linearRGB;solid-color:rgb(0,0,0);solid-opacity:1;vector-effect:none;fill:rgb(0,0,0);fill-opacity:1;fill-rule:nonzero;stroke:none;stroke-width:1;stroke-linecap:round;stroke-linejoin:round;stroke-miterlimit:4;stroke-dasharray:none;stroke-dashoffset:0;stroke-opacity:1;color-rendering:auto;image-rendering:auto;shape-rendering:auto;text-rendering:auto;enable-background:accumulate;stop-color:rgb(0,0,0)" d="m 34.425833,21.243515 v 5.3e-4 c -1.356302,0.0029 -3.040388,0.08297 -4.853969,0.627868 -2.418109,0.726532 -5.007345,2.476165 -6.757726,5.427575 -1.191109,2.008413 -1.525394,4.215704 -1.337902,6.402195 l -0.0021,8.8222 c -1.4e-4,0.0176 -1.4e-4,0.03511 0,0.05271 v 7.898744 26.940473 c 1.189268,-0.174197 2.404211,-0.266134 3.639569,-0.266134 13.857351,0 25.208798,11.353906 25.208798,25.210864 0,3.0116 -0.536683,5.90486 -1.518253,8.58914 h 67.97466 c 1.85053,-5.3e-4 3.34983,-1.50069 3.34915,-3.35122 V 93.590532 h -16.21658 c -5.243774,0 -9.790609,-2.421752 -12.636438,-5.972762 -2.76207,-3.446521 -3.98131,-7.665156 -4.01991,-11.750186 -0.03859,-4.08751 1.105466,-8.35929 3.885033,-11.85509 2.864961,-3.603209 7.47799,-5.994466 12.771315,-5.994466 h 16.21663 V 42.576593 c 8e-4,-1.85053 -1.49862,-3.350818 -3.34915,-3.351217 h -4.04729 V 24.601967 c -5.3e-4,-1.850528 -1.50069,-3.350347 -3.35122,-3.349667 h -8.95708 c -1.849845,2.21e-4 -3.349445,1.499819 -3.349667,3.349667 2.22e-4,1.84985 1.499822,3.349447 3.349667,3.349666 h 5.60741 V 39.225362 H 33.620714 c -0.15602,-0.0208 -0.313373,-0.03075 -0.470773,-0.02945 -1.733831,0.01241 -3.202191,-1.174417 -4.185791,-3.166216 -0.983609,-1.99181 -0.920109,-4.41266 -0.38654,-5.312338 0.96887,-1.633681 1.813137,-2.094648 2.921786,-2.427759 1.10866,-0.3331 2.540471,-0.343207 4.13463,-0.335896 3.07576,0.0141 4.4053,0.02646 7.087942,-0.0021 1.849892,-0.0195 3.333834,-1.534917 3.314525,-3.384807 -0.0195,-1.850659 -1.536221,-3.334918 -3.386873,-3.314526 -2.63588,0.028 -3.896471,0.0141 -6.984071,0 -0.37188,-0.0019 -0.787607,-0.0097 -1.239716,-0.0088 z" sodipodi:nodetypes="ccsscccccssccccsscsscccccccccccccssssccccc"/><path style="color:rgb(0,0,0);font-style:normal;font-variant:normal;font-weight:normal;font-stretch:normal;font-size:medium;line-height:normal;font-family:sans-serif;font-variant-ligatures:normal;font-variant-position:normal;font-variant-caps:normal;font-variant-numeric:normal;font-variant-alternates:normal;font-variant-east-asian:normal;font-feature-settings:normal;font-variation-settings:normal;text-indent:0;text-align:start;text-decoration:none;text-decoration-line:none;text-decoration-style:solid;text-decoration-color:rgb(0,0,0);letter-spacing:normal;word-spacing:normal;text-transform:none;writing-mode:lr-tb;direction:ltr;text-orientation:mixed;dominant-baseline:auto;baseline-shift:baseline;text-anchor:start;white-space:normal;shape-padding:0;shape-margin:0;inline-size:0;clip-rule:nonzero;display:inline;overflow:visible;visibility:visible;isolation:auto;mix-blend-mode:normal;color-interpolation:sRGB;color-interpolation-filters:linearRGB;solid-color:rgb(0,0,0);solid-opacity:1;vector-effect:none;fill:rgb(0,0,0);fill-opacity:1;fill-rule:nonzero;stroke:none;stroke-linecap:round;stroke-linejoin:round;stroke-miterlimit:4;stroke-dasharray:none;stroke-dashoffset:0;stroke-opacity:1;color-rendering:auto;image-rendering:auto;shape-rendering:auto;text-rendering:auto;enable-background:accumulate;stop-color:rgb(0,0,0)" d="m 103.91152,61.367559 c -4.289368,0 -7.921888,1.92823 -10.148438,4.72852 -2.22655,2.80028 -3.19068,6.29998 -3.1582,9.74023 0.03248,3.44025 1.0586,6.90969 3.2832,9.68555 2.22461,2.775864 5.80932,4.718754 10.023438,4.718754 h 24.95117 a 3.3503349,3.3503349 0 0 0 3.34961,-3.349614 v -22.17383 a 3.3503349,3.3503349 0 0 0 -3.34961,-3.34961 z m 0,6.69922 h 21.60156 v 15.47461 h -21.60156 c -2.31907,0 -3.68751,-0.82716 -4.794918,-2.20899 -1.10741,-1.38183 -1.79264,-3.45721 -1.8125,-5.56054 -0.01986,-2.10334 0.62383,-4.14846 1.70312,-5.50586 1.079298,-1.35741 2.451138,-2.19922 4.904298,-2.19922 z" id="path990-6"/><circle style="fill:rgb(0,0,0);stroke:none;stroke-width:7.02485;stroke-linecap:round;stroke-linejoin:round;stroke-miterlimit:4;stroke-dasharray:none;paint-order:stroke fill markers;stop-color:rgb(0,0,0)" id="circle996" cx="104.8139" cy="75.804329" r="4.1374292"/><path id="path935" style="color:rgb(0,0,0);font-style:normal;font-variant:normal;font-weight:normal;font-stretch:normal;font-size:medium;line-height:normal;font-family:sans-serif;font-variant-ligatures:normal;font-variant-position:normal;font-variant-caps:normal;font-variant-numeric:normal;font-variant-alternates:normal;font-variant-east-asian:normal;font-feature-settings:normal;font-variation-settings:normal;text-indent:0;text-align:start;text-decoration:none;text-decoration-line:none;text-decoration-style:solid;text-decoration-color:rgb(0,0,0);letter-spacing:normal;word-spacing:normal;text-transform:none;writing-mode:lr-tb;direction:ltr;text-orientation:mixed;dominant-baseline:auto;baseline-shift:baseline;text-anchor:start;white-space:normal;shape-padding:0;shape-margin:0;inline-size:0;clip-rule:nonzero;display:inline;overflow:visible;visibility:visible;isolation:auto;mix-blend-mode:normal;color-interpolation:sRGB;color-interpolation-filters:linearRGB;solid-color:rgb(0,0,0);solid-opacity:1;vector-effect:none;fill:rgb(0,0,0);fill-opacity:1;fill-rule:nonzero;stroke:none;stroke-width:7;stroke-linecap:round;stroke-linejoin:round;stroke-miterlimit:4;stroke-dasharray:none;stroke-dashoffset:0;stroke-opacity:1;color-rendering:auto;image-rendering:auto;shape-rendering:auto;text-rendering:auto;enable-background:accumulate;stop-color:rgb(0,0,0)" d="m 85.748731,11.245987 a 3.5003499,3.5003499 0 0 0 -1.44849,0.320911 L 45.585293,29.363744 a 3.5003499,3.5003499 0 0 0 1.46296,6.679694 h 46.824014 a 3.5003499,3.5003499 0 0 0 3.185851,-4.951119 L 88.946469,13.295474 a 3.5003499,3.5003499 0 0 0 -3.117122,-2.048971 3.5003499,3.5003499 0 0 0 -0.08062,-5.29e-4 z"/><path id="path979" style="color:rgb(0,0,0);font-style:normal;font-variant:normal;font-weight:normal;font-stretch:normal;font-size:medium;line-height:normal;font-family:sans-serif;font-variant-ligatures:normal;font-variant-position:normal;font-variant-caps:normal;font-variant-numeric:normal;font-variant-alternates:normal;font-variant-east-asian:normal;font-feature-settings:normal;font-variation-settings:normal;text-indent:0;text-align:start;text-decoration:none;text-decoration-line:none;text-decoration-style:solid;text-decoration-color:rgb(0,0,0);letter-spacing:normal;word-spacing:normal;text-transform:none;writing-mode:lr-tb;direction:ltr;text-orientation:mixed;dominant-baseline:auto;baseline-shift:baseline;text-anchor:start;white-space:normal;shape-padding:0;shape-margin:0;inline-size:0;clip-rule:nonzero;display:inline;overflow:visible;visibility:visible;isolation:auto;mix-blend-mode:normal;color-interpolation:sRGB;color-interpolation-filters:linearRGB;solid-color:rgb(0,0,0);solid-opacity:1;vector-effect:none;fill:rgb(0,0,0);fill-opacity:1;fill-rule:nonzero;stroke:none;stroke-width:1;stroke-linecap:round;stroke-linejoin:round;stroke-miterlimit:4;stroke-dasharray:none;stroke-dashoffset:0;stroke-opacity:1;paint-order:stroke fill markers;color-rendering:auto;image-rendering:auto;shape-rendering:auto;text-rendering:auto;enable-background:accumulate;stop-color:rgb(0,0,0)" d="m 25.11402,80.499892 c -12.03334,0 -21.85965,9.827858 -21.85965,21.861198 0,12.03334 9.82631,21.85965 21.85965,21.85965 12.03334,0 21.859131,-9.82631 21.859131,-21.85965 0,-12.03334 -9.825791,-21.861198 -21.859131,-21.861198 z m 0,9.896552 a 3.3499999,3.3499999 0 0 1 3.34967,3.349667 v 5.265312 H 33.729 a 3.3499999,3.3499999 0 0 1 3.34966,3.349667 3.3499999,3.3499999 0 0 1 -3.34966,3.34967 h -5.26531 v 5.26376 a 3.3499999,3.3499999 0 0 1 -3.34967,3.34966 3.3499999,3.3499999 0 0 1 -3.34966,-3.34966 v -5.26376 h -5.26583 a 3.3499999,3.3499999 0 0 1 -3.34915,-3.34967 3.3499999,3.3499999 0 0 1 3.34915,-3.349667 h 5.26583 v -5.265312 a 3.3499999,3.3499999 0 0 1 3.34966,-3.349667 z"/><defs id="defs2"/><metadata id="metadata5"/></svg>
