<svg width="24" height="24" viewBox="0 0 24 24" fill="none" xmlns="http://www.w3.org/2000/svg">
<g clip-path="url(#clip0_486_4982)">
<path d="M22.6348 20.3935H1.45312C1.04514 20.5254 0.75 20.8205 0.75 21.1845V22.5908C0.75 22.9548 1.04514 23.25 1.40918 23.25H22.5908C22.9549 23.25 23.25 22.9548 23.25 22.5908V21.1845C23.25 20.8205 22.9549 20.5254 22.6348 20.3935ZM22.8435 5.19486L12.2526 0.800329C12.1726 0.767103 12.0867 0.75 12 0.75C11.9133 0.75 11.8274 0.767103 11.7474 0.800329L1.15654 5.19486C1.03618 5.24479 0.933327 5.32927 0.860968 5.43764C0.788609 5.546 0.749993 5.67338 0.75 5.80368V7.12204C0.75 7.48608 1.04514 7.78122 1.40918 7.78122H22.5908C22.9549 7.78122 23.25 7.48608 23.25 7.12204V5.80368C23.25 5.53724 23.0896 5.29695 22.8435 5.19486ZM15.9551 5.80368H8.04492C7.68088 5.80368 7.38574 5.50854 7.38574 5.1445C7.38574 4.78046 7.68088 4.48532 8.04492 4.48532H15.9551C16.3191 4.48532 16.6143 4.78046 16.6143 5.1445C16.6143 5.50854 16.3191 5.80368 15.9551 5.80368ZM2.00244 17.8886V19.207H7.05615V17.8886C7.05615 17.5246 6.76102 17.2295 6.39697 17.2295H2.66162C2.29758 17.2295 2.00244 17.5246 2.00244 17.8886ZM2.88135 9.09958H6.17725V15.9111H2.88135V9.09958ZM17.8228 9.09958H21.1187V15.9111H17.8228V9.09958ZM16.9438 17.8886V19.207H21.9976V17.8886C21.9976 17.5246 21.7024 17.2295 21.3384 17.2295H17.603C17.239 17.2295 16.9438 17.5246 16.9438 17.8886ZM12 16.1308C11.6365 16.1308 11.3408 15.8351 11.3408 15.4716C11.3408 15.1076 11.0457 14.8125 10.6816 14.8125C10.3176 14.8125 10.0225 15.1076 10.0225 15.4716C10.0225 16.331 10.5736 17.0637 11.3408 17.3358V17.6689C11.3408 18.033 11.636 18.3281 12 18.3281C12.364 18.3281 12.6592 18.033 12.6592 17.6689V17.3358C13.4264 17.0637 13.9775 16.331 13.9775 15.4716C13.9775 14.3812 13.0904 13.4941 12 13.4941C11.6365 13.4941 11.3408 13.1984 11.3408 12.8349C11.3408 12.4715 11.6365 12.1757 12 12.1757C12.3635 12.1757 12.6592 12.4715 12.6592 12.8349C12.6592 13.199 12.9543 13.4941 13.3184 13.4941C13.6824 13.4941 13.9775 13.199 13.9775 12.8349C13.9775 11.9756 13.4264 11.2429 12.6592 10.9708V10.6377C12.6592 10.2736 12.364 9.97848 12 9.97848C11.636 9.97848 11.3408 10.2736 11.3408 10.6377V10.9708C10.5736 11.2429 10.0225 11.9756 10.0225 12.8349C10.0225 13.9253 10.9096 14.8125 12 14.8125C12.3635 14.8125 12.6592 15.1082 12.6592 15.4716C12.6592 15.8351 12.3635 16.1308 12 16.1308Z" fill="#0A1128"/>
</g>
<defs>
<clipPath id="clip0_486_4982">
<rect width="24" height="24" fill="white"/>
</clipPath>
</defs>
</svg>
