<svg width="18" height="22" viewBox="0 0 18 22" fill="none" xmlns="http://www.w3.org/2000/svg">
<g id="Frame 66">
<path id="Vector" fill-rule="evenodd" clip-rule="evenodd" d="M13.147 6.25C13.147 6.44891 13.068 6.63968 12.9273 6.78033C12.7867 6.92098 12.5959 7 12.397 7C12.1981 7 12.0073 6.92098 11.8666 6.78033C11.726 6.63968 11.647 6.44891 11.647 6.25V4.75C11.647 4.02065 11.3572 3.32118 10.8415 2.80546C10.3258 2.28973 9.62632 2 8.89697 2C8.16763 2 7.46815 2.28973 6.95243 2.80546C6.4367 3.32118 6.14697 4.02065 6.14697 4.75V6.25C6.14697 6.44891 6.06795 6.63968 5.9273 6.78033C5.78665 6.92098 5.59589 7 5.39697 7C5.19806 7 5.00729 6.92098 4.86664 6.78033C4.72599 6.63968 4.64697 6.44891 4.64697 6.25V4.75C4.64697 3.62283 5.09474 2.54183 5.89177 1.7448C6.6888 0.947767 7.7698 0.5 8.89697 0.5C10.0241 0.5 11.1051 0.947767 11.9022 1.7448C12.6992 2.54183 13.147 3.62283 13.147 4.75V6.25Z" fill="#9D94FF"/>
<path id="Vector_2" fill-rule="evenodd" clip-rule="evenodd" d="M16.2389 7.6L17.0389 19.6C17.059 19.9073 17.0159 20.2155 16.9122 20.5055C16.8085 20.7955 16.6465 21.0612 16.4361 21.2861C16.2257 21.511 15.9714 21.6904 15.689 21.8132C15.4065 21.936 15.1019 21.9996 14.7939 22H2.99994C2.69187 21.9999 2.38711 21.9365 2.10453 21.8138C1.82195 21.6911 1.56755 21.5117 1.3571 21.2867C1.14665 21.0617 0.984624 20.796 0.881045 20.5058C0.777467 20.2157 0.734545 19.9074 0.754937 19.6L1.55494 7.6C1.59299 7.0305 1.84606 6.49674 2.26289 6.10683C2.67972 5.71692 3.22916 5.5 3.79994 5.5H13.9939C14.5647 5.5 15.1142 5.71692 15.531 6.10683C15.9478 6.49674 16.2009 7.0305 16.2389 7.6ZM11.3829 9.928C11.1594 10.398 10.8071 10.7949 10.3671 11.0728C9.92714 11.3508 9.41737 11.4983 8.89694 11.4983C8.37651 11.4983 7.86674 11.3508 7.42673 11.0728C6.98673 10.7949 6.63452 10.398 6.41094 9.928C6.36865 9.83903 6.30926 9.75926 6.23614 9.69324C6.16303 9.62723 6.07763 9.57626 5.98481 9.54325C5.892 9.51024 5.7936 9.49583 5.69522 9.50085C5.59684 9.50587 5.50041 9.53021 5.41144 9.5725C5.32247 9.61479 5.2427 9.67418 5.17668 9.7473C5.11066 9.82041 5.05969 9.90581 5.02668 9.99862C4.99367 10.0914 4.97927 10.1898 4.98428 10.2882C4.9893 10.3866 5.01365 10.483 5.05594 10.572C5.40037 11.2992 5.94418 11.9138 6.62414 12.3441C7.3041 12.7744 8.09225 13.0029 8.89694 13.0029C9.70162 13.0029 10.4898 12.7744 11.1697 12.3441C11.8497 11.9138 12.3935 11.2992 12.7379 10.572C12.7802 10.483 12.8046 10.3866 12.8096 10.2882C12.8146 10.1898 12.8002 10.0914 12.7672 9.99862C12.7342 9.90581 12.6832 9.82041 12.6172 9.7473C12.5512 9.67418 12.4714 9.61479 12.3824 9.5725C12.2935 9.53021 12.197 9.50587 12.0987 9.50085C12.0003 9.49583 11.9019 9.51024 11.8091 9.54325C11.7162 9.57626 11.6308 9.62723 11.5577 9.69324C11.4846 9.75926 11.4252 9.83903 11.3829 9.928Z" fill="#9D94FF"/>
</g>
</svg>
