<?xml version="1.0" encoding="UTF-8"?>
<!DOCTYPE svg PUBLIC "-//W3C//DTD SVG 1.1//EN" "http://www.w3.org/Graphics/SVG/1.1/DTD/svg11.dtd">
<svg xmlns="http://www.w3.org/2000/svg" version="1.1" width="512px" height="512px" style="shape-rendering:geometricPrecision; text-rendering:geometricPrecision; image-rendering:optimizeQuality; fill-rule:evenodd; clip-rule:evenodd" xmlns:xlink="http://www.w3.org/1999/xlink">
<g><path style="opacity:0.986" fill="#fbab1c" d="M 242.5,4.5 C 242.5,19.8333 242.5,35.1667 242.5,50.5C 215.105,51.8486 189.105,58.5152 164.5,70.5C 164.182,53.7561 164.515,37.0895 165.5,20.5C 190.094,10.6064 215.761,5.27309 242.5,4.5 Z"/></g>
<g><path style="opacity:0.991" fill="#f9a515" d="M 326.5,14.5 C 325.177,30.4021 325.177,46.4021 326.5,62.5C 299.325,52.6179 271.325,48.6179 242.5,50.5C 242.5,35.1667 242.5,19.8333 242.5,4.5C 271.213,2.80053 299.213,6.13386 326.5,14.5 Z"/></g>
<g><path style="opacity:0.985" fill="#fcb022" d="M 165.5,20.5 C 164.515,37.0895 164.182,53.7561 164.5,70.5C 138.734,83.2487 116.401,100.582 97.5,122.5C 97.5,101.5 97.5,80.5 97.5,59.5C 117.645,42.4175 140.312,29.4175 165.5,20.5 Z"/></g>
<g><path style="opacity:0.989" fill="#f79f0c" d="M 326.5,14.5 C 357.212,23.353 384.878,37.6863 409.5,57.5C 408.833,77.5 408.167,97.5 407.5,117.5C 384.836,92.9847 357.836,74.6513 326.5,62.5C 325.177,46.4021 325.177,30.4021 326.5,14.5 Z"/></g>
<g><path style="opacity:0.988" fill="#f69b07" d="M 409.5,57.5 C 420.699,65.0254 430.699,74.0254 439.5,84.5C 439.5,121.5 439.5,158.5 439.5,195.5C 431.09,192.974 422.757,190.141 414.5,187C 401.503,177.447 399.003,165.614 407,151.5C 412.408,146.214 418.908,143.214 426.5,142.5C 420.526,133.864 414.193,125.531 407.5,117.5C 408.167,97.5 408.833,77.5 409.5,57.5 Z"/></g>
<g><path style="opacity:0.988" fill="#f59803" d="M 439.5,84.5 C 450.948,96.4538 461.115,109.454 470,123.5C 480.726,111.642 492.56,110.475 505.5,120C 507.65,123.147 509.65,126.313 511.5,129.5C 511.5,134.167 511.5,138.833 511.5,143.5C 504.989,161.185 498.156,178.852 491,196.5C 485.162,204.5 477.328,207.666 467.5,206C 457.807,203.162 448.474,199.662 439.5,195.5C 439.5,158.5 439.5,121.5 439.5,84.5 Z"/></g>
<g><path style="opacity:0.989" fill="#feb629" d="M 97.5,59.5 C 97.5,80.5 97.5,101.5 97.5,122.5C 79.6232,144.573 66.1232,169.239 57,196.5C 45.3069,209.021 32.9736,209.688 20,198.5C 13.4782,189.302 12.8115,179.635 18,169.5C 33.9954,125.15 60.4954,88.4836 97.5,59.5 Z"/></g>
<g><path style="opacity:0.978" fill="#a3f1cb" d="M 130.5,157.5 C 130.5,161.167 130.5,164.833 130.5,168.5C 125.968,168.182 121.634,168.515 117.5,169.5C 118.433,181.23 113.099,187.897 101.5,189.5C 99.4075,189.514 97.5741,188.848 96,187.5C 95.5,212.164 95.3334,236.831 95.5,261.5C 95.3342,266.179 95.5008,270.845 96,275.5C 101.268,274.054 106.434,274.388 111.5,276.5C 115.983,280.472 117.983,285.472 117.5,291.5C 117.5,291.833 117.5,292.167 117.5,292.5C 116.957,292.56 116.624,292.893 116.5,293.5C 128.815,294.499 141.149,294.832 153.5,294.5C 153.5,297.833 153.5,301.167 153.5,304.5C 135.992,304.17 118.659,304.503 101.5,305.5C 94.9656,306.498 90.1322,304.164 87,298.5C 86.3333,253.833 86.3333,209.167 87,164.5C 88.587,161.244 91.087,159.077 94.5,158C 106.495,157.5 118.495,157.333 130.5,157.5 Z"/></g>
<g><path style="opacity:0.962" fill="#94ecc0" d="M 130.5,157.5 C 148.167,157.5 165.833,157.5 183.5,157.5C 183.5,161.167 183.5,164.833 183.5,168.5C 179.298,168.183 175.298,168.517 171.5,169.5C 166.167,169.5 160.833,169.5 155.5,169.5C 142.833,169.5 130.167,169.5 117.5,169.5C 121.634,168.515 125.968,168.182 130.5,168.5C 130.5,164.833 130.5,161.167 130.5,157.5 Z"/></g>
<g><path style="opacity:0.945" fill="#88e8b6" d="M 183.5,157.5 C 200.167,157.5 216.833,157.5 233.5,157.5C 233.5,161.167 233.5,164.833 233.5,168.5C 227.974,168.179 222.64,168.512 217.5,169.5C 202.167,169.5 186.833,169.5 171.5,169.5C 175.298,168.517 179.298,168.183 183.5,168.5C 183.5,164.833 183.5,161.167 183.5,157.5 Z"/></g>
<g><path style="opacity:0.957" fill="#7be4ad" d="M 233.5,157.5 C 252.833,157.5 272.167,157.5 291.5,157.5C 291.5,161.167 291.5,164.833 291.5,168.5C 287.629,168.185 283.962,168.518 280.5,169.5C 277.833,169.5 275.167,169.5 272.5,169.5C 260.5,169.5 248.5,169.5 236.5,169.5C 230.167,169.5 223.833,169.5 217.5,169.5C 222.64,168.512 227.974,168.179 233.5,168.5C 233.5,164.833 233.5,161.167 233.5,157.5 Z"/></g>
<g><path style="opacity:0.996" fill="#64db9b" d="M 291.5,157.5 C 317.169,157.333 342.835,157.5 368.5,158C 375.177,160.513 377.843,165.346 376.5,172.5C 376.667,214.168 376.5,255.835 376,297.5C 375.003,299.323 373.836,300.99 372.5,302.5C 370.95,303.441 369.284,304.107 367.5,304.5C 357.5,304.5 347.5,304.5 337.5,304.5C 337.5,301.167 337.5,297.833 337.5,294.5C 340.385,294.806 343.052,294.473 345.5,293.5C 345.311,278.513 352.477,272.513 367,275.5C 367.5,254.836 367.667,234.169 367.5,213.5C 367.666,204.827 367.5,196.16 367,187.5C 365.261,188.894 363.261,189.561 361,189.5C 357.556,189.185 354.39,188.185 351.5,186.5C 346.739,181.886 344.739,176.22 345.5,169.5C 337.833,169.5 330.167,169.5 322.5,169.5C 308.5,169.5 294.5,169.5 280.5,169.5C 283.962,168.518 287.629,168.185 291.5,168.5C 291.5,164.833 291.5,161.167 291.5,157.5 Z"/></g>
<g><path style="opacity:1" fill="#51d193" d="M 155.5,169.5 C 160.833,169.5 166.167,169.5 171.5,169.5C 186.833,169.5 202.167,169.5 217.5,169.5C 182.167,205.167 146.833,240.833 111.5,276.5C 106.434,274.388 101.268,274.054 96,275.5C 95.5008,270.845 95.3342,266.179 95.5,261.5C 96.3138,259.369 96.8138,257.036 97,254.5C 115.035,236.632 132.868,218.632 150.5,200.5C 160.167,200.5 169.833,200.5 179.5,200.5C 179.5,194.833 179.5,189.167 179.5,183.5C 167.674,182.669 155.674,182.169 143.5,182C 147.704,177.964 151.704,173.798 155.5,169.5 Z"/></g>
<g><path style="opacity:1" fill="#4acc90" d="M 217.5,169.5 C 223.833,169.5 230.167,169.5 236.5,169.5C 197.535,208.965 158.368,248.299 119,287.5C 118.79,289.058 118.29,290.391 117.5,291.5C 117.983,285.472 115.983,280.472 111.5,276.5C 146.833,240.833 182.167,205.167 217.5,169.5 Z"/></g>
<g><path style="opacity:1" fill="#43c88d" d="M 236.5,169.5 C 248.5,169.5 260.5,169.5 272.5,169.5C 263.833,178.5 255.167,187.5 246.5,196.5C 246.167,196.5 245.833,196.5 245.5,196.5C 222.757,190.127 206.257,197.46 196,218.5C 193.88,227.568 194.047,236.568 196.5,245.5C 198.773,250.394 201.773,254.727 205.5,258.5C 205.5,258.833 205.5,259.167 205.5,259.5C 194.5,270.833 183.5,282.167 172.5,293.5C 168.167,293.5 163.833,293.5 159.5,293.5C 145.323,293.829 131.323,293.496 117.5,292.5C 117.5,292.167 117.5,291.833 117.5,291.5C 118.29,290.391 118.79,289.058 119,287.5C 158.368,248.299 197.535,208.965 236.5,169.5 Z"/></g>
<g><path style="opacity:1" fill="#36c088" d="M 272.5,169.5 C 275.167,169.5 277.833,169.5 280.5,169.5C 294.5,169.5 308.5,169.5 322.5,169.5C 304.833,187.833 286.833,205.833 268.5,223.5C 268.065,220.843 267.065,218.509 265.5,216.5C 264.343,212.024 262.01,208.358 258.5,205.5C 254.858,202.013 250.858,199.013 246.5,196.5C 255.167,187.5 263.833,178.5 272.5,169.5 Z"/></g>
<g><path style="opacity:1" fill="#2cb984" d="M 322.5,169.5 C 330.167,169.5 337.833,169.5 345.5,169.5C 344.739,176.22 346.739,181.886 351.5,186.5C 316.167,222.167 280.833,257.833 245.5,293.5C 221.167,293.5 196.833,293.5 172.5,293.5C 183.5,282.167 194.5,270.833 205.5,259.5C 208.686,262.262 212.353,264.262 216.5,265.5C 235.047,272.32 250.547,267.987 263,252.5C 267.924,243.455 269.757,233.788 268.5,223.5C 286.833,205.833 304.833,187.833 322.5,169.5 Z"/></g>
<g><path style="opacity:0.993" fill="#019f74" d="M 376.5,172.5 C 388.047,172.379 393.38,178.045 392.5,189.5C 404.167,188.5 409.5,193.833 408.5,205.5C 415.387,204.286 420.553,206.619 424,212.5C 424.667,257.167 424.667,301.833 424,346.5C 420.238,352.596 414.738,354.93 407.5,353.5C 406.081,352.549 404.415,352.216 402.5,352.5C 402.666,346.824 402.499,341.157 402,335.5C 396.928,336.471 391.762,336.805 386.5,336.5C 386.829,330.794 386.495,325.128 385.5,319.5C 381.183,320.689 376.85,320.689 372.5,319.5C 372.5,313.833 372.5,308.167 372.5,302.5C 373.836,300.99 375.003,299.323 376,297.5C 376.5,255.835 376.667,214.168 376.5,172.5 Z"/></g>
<g><path style="opacity:1" fill="#9cefc5" d="M 146.5,183.5 C 141.5,188.833 136.5,194.167 131.5,199.5C 128.5,199.5 125.5,199.5 122.5,199.5C 122.5,194.167 122.5,188.833 122.5,183.5C 130.5,183.5 138.5,183.5 146.5,183.5 Z"/></g>
<g><path style="opacity:1" fill="#86e7b5" d="M 146.5,183.5 C 155.167,183.5 163.833,183.5 172.5,183.5C 167.703,188.798 162.703,193.965 157.5,199C 148.84,199.5 140.173,199.666 131.5,199.5C 136.5,194.167 141.5,188.833 146.5,183.5 Z"/></g>
<g><path style="opacity:1" fill="#22b381" d="M 351.5,186.5 C 354.39,188.185 357.556,189.185 361,189.5C 363.261,189.561 365.261,188.894 367,187.5C 367.5,196.16 367.666,204.827 367.5,213.5C 351.035,229.465 334.701,245.632 318.5,262C 326.159,262.5 333.826,262.666 341.5,262.5C 341.822,268.358 341.489,274.025 340.5,279.5C 327.006,280.331 313.339,280.831 299.5,281C 295.296,285.036 291.296,289.202 287.5,293.5C 277.833,293.5 268.167,293.5 258.5,293.5C 254.167,293.5 249.833,293.5 245.5,293.5C 280.833,257.833 316.167,222.167 351.5,186.5 Z"/></g>
<g><path style="opacity:1" fill="#71e0a5" d="M 172.5,183.5 C 174.833,183.5 177.167,183.5 179.5,183.5C 179.5,189.167 179.5,194.833 179.5,200.5C 169.833,200.5 160.167,200.5 150.5,200.5C 140.985,200.827 131.652,200.494 122.5,199.5C 125.5,199.5 128.5,199.5 131.5,199.5C 140.173,199.666 148.84,199.5 157.5,199C 162.703,193.965 167.703,188.798 172.5,183.5 Z"/></g>
<g><path style="opacity:1" fill="#9cefc5" d="M 245.5,196.5 C 245.414,197.496 245.748,198.329 246.5,199C 230.667,214.833 214.833,230.667 199,246.5C 198.329,245.748 197.496,245.414 196.5,245.5C 194.047,236.568 193.88,227.568 196,218.5C 206.257,197.46 222.757,190.127 245.5,196.5 Z"/></g>
<g><path style="opacity:1" fill="#5cd797" d="M 117.5,169.5 C 130.167,169.5 142.833,169.5 155.5,169.5C 151.704,173.798 147.704,177.964 143.5,182C 155.674,182.169 167.674,182.669 179.5,183.5C 177.167,183.5 174.833,183.5 172.5,183.5C 163.833,183.5 155.167,183.5 146.5,183.5C 138.5,183.5 130.5,183.5 122.5,183.5C 122.5,188.833 122.5,194.167 122.5,199.5C 131.652,200.494 140.985,200.827 150.5,200.5C 132.868,218.632 115.035,236.632 97,254.5C 96.8138,257.036 96.3138,259.369 95.5,261.5C 95.3334,236.831 95.5,212.164 96,187.5C 97.5741,188.848 99.4075,189.514 101.5,189.5C 113.099,187.897 118.433,181.23 117.5,169.5 Z"/></g>
<g><path style="opacity:1" fill="#8eeabb" d="M 245.5,196.5 C 245.833,196.5 246.167,196.5 246.5,196.5C 250.858,199.013 254.858,202.013 258.5,205.5C 241.167,223.5 223.5,241.167 205.5,258.5C 201.773,254.727 198.773,250.394 196.5,245.5C 197.496,245.414 198.329,245.748 199,246.5C 214.833,230.667 230.667,214.833 246.5,199C 245.748,198.329 245.414,197.496 245.5,196.5 Z"/></g>
<g><path style="opacity:1" fill="#81e6b1" d="M 258.5,205.5 C 262.01,208.358 264.343,212.024 265.5,216.5C 250.421,233.081 234.754,249.248 218.5,265C 217.906,265.464 217.239,265.631 216.5,265.5C 212.353,264.262 208.686,262.262 205.5,259.5C 205.5,259.167 205.5,258.833 205.5,258.5C 223.5,241.167 241.167,223.5 258.5,205.5 Z"/></g>
<g><path style="opacity:1" fill="#75e1a8" d="M 265.5,216.5 C 267.065,218.509 268.065,220.843 268.5,223.5C 269.757,233.788 267.924,243.455 263,252.5C 250.547,267.987 235.047,272.32 216.5,265.5C 217.239,265.631 217.906,265.464 218.5,265C 234.754,249.248 250.421,233.081 265.5,216.5 Z"/></g>
<g><path style="opacity:1" fill="#13a97b" d="M 367.5,213.5 C 367.667,234.169 367.5,254.836 367,275.5C 352.477,272.513 345.311,278.513 345.5,293.5C 326.167,293.5 306.833,293.5 287.5,293.5C 291.296,289.202 295.296,285.036 299.5,281C 313.339,280.831 327.006,280.331 340.5,279.5C 341.489,274.025 341.822,268.358 341.5,262.5C 333.826,262.666 326.159,262.5 318.5,262C 334.701,245.632 351.035,229.465 367.5,213.5 Z"/></g>
<g><path style="opacity:1" fill="#97edc2" d="M 313.5,263.5 C 308.5,268.833 303.5,274.167 298.5,279.5C 293.5,279.5 288.5,279.5 283.5,279.5C 283.5,274.167 283.5,268.833 283.5,263.5C 293.5,263.5 303.5,263.5 313.5,263.5 Z"/></g>
<g><path style="opacity:1" fill="#7de4ae" d="M 313.5,263.5 C 322.5,263.5 331.5,263.5 340.5,263.5C 340.5,268.833 340.5,274.167 340.5,279.5C 326.5,279.5 312.5,279.5 298.5,279.5C 303.5,274.167 308.5,268.833 313.5,263.5 Z"/></g>
<g><path style="opacity:1" fill="#8eeabb" d="M 117.5,292.5 C 131.323,293.496 145.323,293.829 159.5,293.5C 175.658,294.496 191.991,294.83 208.5,294.5C 208.5,297.833 208.5,301.167 208.5,304.5C 190.167,304.5 171.833,304.5 153.5,304.5C 153.5,301.167 153.5,297.833 153.5,294.5C 141.149,294.832 128.815,294.499 116.5,293.5C 116.624,292.893 116.957,292.56 117.5,292.5 Z"/></g>
<g><path style="opacity:1" fill="#81e5b1" d="M 159.5,293.5 C 163.833,293.5 168.167,293.5 172.5,293.5C 196.833,293.5 221.167,293.5 245.5,293.5C 249.833,293.5 254.167,293.5 258.5,293.5C 258.5,297.167 258.5,300.833 258.5,304.5C 255.5,304.5 252.5,304.5 249.5,304.5C 235.833,304.5 222.167,304.5 208.5,304.5C 208.5,301.167 208.5,297.833 208.5,294.5C 191.991,294.83 175.658,294.496 159.5,293.5 Z"/></g>
<g><path style="opacity:1" fill="#73e1a6" d="M 258.5,293.5 C 268.167,293.5 277.833,293.5 287.5,293.5C 306.833,293.5 326.167,293.5 345.5,293.5C 343.052,294.473 340.385,294.806 337.5,294.5C 337.5,297.833 337.5,301.167 337.5,304.5C 311.167,304.5 284.833,304.5 258.5,304.5C 258.5,300.833 258.5,297.167 258.5,293.5 Z"/></g>
<g><path style="opacity:0.999" fill="#f04950" d="M 39.5,304.5 C 38.9094,305.151 38.2427,305.818 37.5,306.5C 52.7406,368.87 87.4073,417.036 141.5,451C 202.505,486.001 266.505,492.668 333.5,471C 409.909,441.588 458.575,387.254 479.5,308C 479.257,307.098 478.923,306.265 478.5,305.5C 482.42,306.127 485.753,307.793 488.5,310.5C 475.997,363.691 448.664,407.525 406.5,442C 338.621,492.972 263.954,505.972 182.5,481C 100.2,450.539 48.8662,392.706 28.5,307.5C 31.763,305.432 35.4296,304.432 39.5,304.5 Z"/></g>
<g><path style="opacity:0.999" fill="#ea474e" d="M 39.5,304.5 C 43.4069,304.726 47.0735,305.726 50.5,307.5C 69.9828,379.635 114.316,429.802 183.5,458C 266.602,485.247 340.935,470.247 406.5,413C 437.302,383.243 457.635,347.409 467.5,305.5C 471.167,304.167 474.833,304.167 478.5,305.5C 478.923,306.265 479.257,307.098 479.5,308C 458.575,387.254 409.909,441.588 333.5,471C 266.505,492.668 202.505,486.001 141.5,451C 87.4073,417.036 52.7406,368.87 37.5,306.5C 38.2427,305.818 38.9094,305.151 39.5,304.5 Z"/></g>
<g><path style="opacity:0.995" fill="#3cc48b" d="M 169.5,305.5 C 169.811,306.478 170.478,307.145 171.5,307.5C 172.768,306.572 174.101,306.405 175.5,307C 175.132,308.473 175.632,309.973 177,311.5C 177.333,311.167 177.667,310.833 178,310.5C 180.069,311.264 182.236,311.764 184.5,312C 187.298,314.798 190.465,317.965 194,321.5C 198.134,320.804 202.3,320.137 206.5,319.5C 217.448,320.478 228.448,320.811 239.5,320.5C 239.5,325.833 239.5,331.167 239.5,336.5C 244.862,336.472 250.195,336.806 255.5,337.5C 255.5,342.833 255.5,348.167 255.5,353.5C 247.5,353.5 239.5,353.5 231.5,353.5C 230.432,352.566 229.099,352.232 227.5,352.5C 227.666,348.486 227.499,344.486 227,340.5C 225.667,341.167 224.333,341.833 223,342.5C 222.667,341.833 222.333,341.167 222,340.5C 220.915,341.293 219.748,341.96 218.5,342.5C 216.641,342.112 214.641,342.112 212.5,342.5C 210.902,340.027 209.402,340.027 208,342.5C 206.111,341.903 204.278,341.569 202.5,341.5C 200.455,343.475 198.788,343.475 197.5,341.5C 195.758,343.973 193.925,343.973 192,341.5C 189.393,342.27 186.727,342.937 184,343.5C 182.351,342.102 181.018,342.436 180,344.5C 179.667,343.833 179.333,343.167 179,342.5C 177.488,343.257 176.154,344.257 175,345.5C 174.667,344.5 174.333,343.5 174,342.5C 172.806,344.525 171.306,344.859 169.5,343.5C 165.691,345.074 162.191,345.408 159,344.5C 158.333,345.167 157.667,345.833 157,346.5C 153.915,345.601 150.748,345.601 147.5,346.5C 146.167,346.333 144.833,346.167 143.5,346C 140.631,342.962 137.631,340.129 134.5,337.5C 159.661,336.502 184.995,336.169 210.5,336.5C 210.665,333.15 210.498,329.817 210,326.5C 206.895,327.063 203.895,327.063 201,326.5C 198.802,328.375 196.969,328.375 195.5,326.5C 192.386,326.869 189.386,326.869 186.5,326.5C 184.326,328.781 182.326,328.781 180.5,326.5C 177.5,327.833 174.5,327.833 171.5,326.5C 169.167,327.167 166.833,327.833 164.5,328.5C 159.038,328.406 153.538,328.073 148,327.5C 147.075,328.047 146.242,328.713 145.5,329.5C 134.61,333.192 125.61,330.359 118.5,321C 123.324,320.886 127.99,320.053 132.5,318.5C 130.517,317.018 128.684,315.351 127,313.5C 124.904,314.715 125.071,315.549 127.5,316C 127,316.5 126.5,317 126,317.5C 124.333,315.833 122.667,314.167 121,312.5C 119.611,316.272 118.611,316.272 118,312.5C 112.856,313.494 108.022,311.327 103.5,306C 125.497,305.5 147.497,305.333 169.5,305.5 Z"/></g>
<g><path style="opacity:1" fill="#30bc86" d="M 249.5,304.5 C 252.5,304.5 255.5,304.5 258.5,304.5C 284.833,304.5 311.167,304.5 337.5,304.5C 347.5,304.5 357.5,304.5 367.5,304.5C 347.34,305.497 327.007,305.83 306.5,305.5C 288.497,305.333 270.497,305.5 252.5,306C 254.205,309.168 255.038,312.668 255,316.5C 256.943,315.685 258.943,314.685 261,313.5C 262.319,315.25 262.819,317.25 262.5,319.5C 264.467,319.739 266.301,319.406 268,318.5C 269.994,319.664 272.161,320.331 274.5,320.5C 278.396,319.445 282.063,319.445 285.5,320.5C 286.495,325.792 286.828,331.125 286.5,336.5C 291.845,336.687 297.178,337.02 302.5,337.5C 302.5,342.833 302.5,348.167 302.5,353.5C 286.833,353.5 271.167,353.5 255.5,353.5C 255.5,348.167 255.5,342.833 255.5,337.5C 250.195,336.806 244.862,336.472 239.5,336.5C 239.5,331.167 239.5,325.833 239.5,320.5C 228.448,320.811 217.448,320.478 206.5,319.5C 202.3,320.137 198.134,320.804 194,321.5C 190.465,317.965 187.298,314.798 184.5,312C 182.236,311.764 180.069,311.264 178,310.5C 177.667,310.833 177.333,311.167 177,311.5C 175.632,309.973 175.132,308.473 175.5,307C 174.101,306.405 172.768,306.572 171.5,307.5C 170.478,307.145 169.811,306.478 169.5,305.5C 196.339,305.831 223.005,305.498 249.5,304.5 Z"/></g>
<g><path style="opacity:0.99" fill="#22b380" d="M 306.5,305.5 C 308.07,307.851 308.903,310.518 309,313.5C 310.907,310.713 312.407,310.88 313.5,314C 313.095,314.945 312.428,315.612 311.5,316C 312.77,316.9 313.77,318.066 314.5,319.5C 319.435,320.448 324.435,320.781 329.5,320.5C 329.5,325.833 329.5,331.167 329.5,336.5C 334.833,336.5 340.167,336.5 345.5,336.5C 345.5,341.833 345.5,347.167 345.5,352.5C 347.415,352.216 349.081,352.549 350.5,353.5C 334.5,353.5 318.5,353.5 302.5,353.5C 302.5,348.167 302.5,342.833 302.5,337.5C 297.178,337.02 291.845,336.687 286.5,336.5C 286.828,331.125 286.495,325.792 285.5,320.5C 282.063,319.445 278.396,319.445 274.5,320.5C 272.161,320.331 269.994,319.664 268,318.5C 266.301,319.406 264.467,319.739 262.5,319.5C 262.819,317.25 262.319,315.25 261,313.5C 258.943,314.685 256.943,315.685 255,316.5C 255.038,312.668 254.205,309.168 252.5,306C 270.497,305.5 288.497,305.333 306.5,305.5 Z"/></g>
<g><path style="opacity:0.97" fill="#e4464d" d="M 467.5,305.5 C 457.635,347.409 437.302,383.243 406.5,413C 340.935,470.247 266.602,485.247 183.5,458C 114.316,429.802 69.9828,379.635 50.5,307.5C 56.1198,308.987 61.4532,310.987 66.5,313.5C 72.3373,332.504 80.3373,350.504 90.5,367.5C 88.396,367.201 86.396,367.534 84.5,368.5C 133.842,437.925 201.175,468.091 286.5,459C 360.201,445.582 413.034,405.082 445,337.5C 448,329.833 451,322.167 454,314.5C 457.474,309.854 461.974,306.854 467.5,305.5 Z"/></g>
<g><path style="opacity:0.999" fill="#f74a51" d="M 28.5,307.5 C 48.8662,392.706 100.2,450.539 182.5,481C 263.954,505.972 338.621,492.972 406.5,442C 448.664,407.525 475.997,363.691 488.5,310.5C 492.651,313.8 494.985,318.133 495.5,323.5C 471.367,402.802 420.7,457.635 343.5,488C 258.311,516.134 179.645,503.8 107.5,451C 63.4489,415.399 34.1156,370.233 19.5,315.5C 21.577,311.754 24.577,309.088 28.5,307.5 Z"/></g>
<g><path style="opacity:0.951" fill="#fc4b53" d="M 19.5,315.5 C 34.1156,370.233 63.4489,415.399 107.5,451C 179.645,503.8 258.311,516.134 343.5,488C 420.7,457.635 471.367,402.802 495.5,323.5C 496.669,329.575 495.836,335.575 493,341.5C 461.873,420.627 405.706,472.794 324.5,498C 239.037,519.378 162.037,502.711 93.5,448C 73.0712,430.247 55.5712,410.081 41,387.5C 30.2038,399.245 18.3704,400.412 5.5,391C 3.35033,387.853 1.35033,384.687 -0.5,381.5C -0.5,376.833 -0.5,372.167 -0.5,367.5C 5.95043,350.159 12.6171,332.825 19.5,315.5 Z"/></g>
<g><path style="opacity:0.985" fill="#da444b" d="M 66.5,313.5 C 76.575,316.7 86.575,320.2 96.5,324C 109.498,333.512 111.998,345.345 104,359.5C 100.182,363.325 95.6824,365.992 90.5,367.5C 80.3373,350.504 72.3373,332.504 66.5,313.5 Z"/></g>
<g><path style="opacity:0.994" fill="#12a97a" d="M 372.5,302.5 C 372.5,308.167 372.5,313.833 372.5,319.5C 376.85,320.689 381.183,320.689 385.5,319.5C 386.495,325.128 386.829,330.794 386.5,336.5C 391.762,336.805 396.928,336.471 402,335.5C 402.499,341.157 402.666,346.824 402.5,352.5C 404.415,352.216 406.081,352.549 407.5,353.5C 388.5,353.5 369.5,353.5 350.5,353.5C 349.081,352.549 347.415,352.216 345.5,352.5C 345.5,347.167 345.5,341.833 345.5,336.5C 340.167,336.5 334.833,336.5 329.5,336.5C 329.5,331.167 329.5,325.833 329.5,320.5C 324.435,320.781 319.435,320.448 314.5,319.5C 313.77,318.066 312.77,316.9 311.5,316C 312.428,315.612 313.095,314.945 313.5,314C 312.407,310.88 310.907,310.713 309,313.5C 308.903,310.518 308.07,307.851 306.5,305.5C 327.007,305.83 347.34,305.497 367.5,304.5C 369.284,304.107 370.95,303.441 372.5,302.5 Z"/></g>
<g><path style="opacity:1" fill="#4ccd91" d="M 153.5,304.5 C 171.833,304.5 190.167,304.5 208.5,304.5C 222.167,304.5 235.833,304.5 249.5,304.5C 223.005,305.498 196.339,305.831 169.5,305.5C 147.497,305.333 125.497,305.5 103.5,306C 108.022,311.327 112.856,313.494 118,312.5C 118.611,316.272 119.611,316.272 121,312.5C 122.667,314.167 124.333,315.833 126,317.5C 126.5,317 127,316.5 127.5,316C 125.071,315.549 124.904,314.715 127,313.5C 128.684,315.351 130.517,317.018 132.5,318.5C 127.99,320.053 123.324,320.886 118.5,321C 125.61,330.359 134.61,333.192 145.5,329.5C 146.242,328.713 147.075,328.047 148,327.5C 153.538,328.073 159.038,328.406 164.5,328.5C 166.833,327.833 169.167,327.167 171.5,326.5C 174.5,327.833 177.5,327.833 180.5,326.5C 182.326,328.781 184.326,328.781 186.5,326.5C 189.386,326.869 192.386,326.869 195.5,326.5C 196.969,328.375 198.802,328.375 201,326.5C 203.895,327.063 206.895,327.063 210,326.5C 210.498,329.817 210.665,333.15 210.5,336.5C 184.995,336.169 159.661,336.502 134.5,337.5C 122.449,338.116 116.783,332.449 117.5,320.5C 106.345,321.678 101.012,316.678 101.5,305.5C 118.659,304.503 135.992,304.17 153.5,304.5 Z"/></g>
<g><path style="opacity:0.969" fill="#48cb8f" d="M 134.5,337.5 C 137.631,340.129 140.631,342.962 143.5,346C 144.833,346.167 146.167,346.333 147.5,346.5C 150.748,345.601 153.915,345.601 157,346.5C 157.667,345.833 158.333,345.167 159,344.5C 162.191,345.408 165.691,345.074 169.5,343.5C 171.306,344.859 172.806,344.525 174,342.5C 174.333,343.5 174.667,344.5 175,345.5C 176.154,344.257 177.488,343.257 179,342.5C 179.333,343.167 179.667,343.833 180,344.5C 181.018,342.436 182.351,342.102 184,343.5C 186.727,342.937 189.393,342.27 192,341.5C 193.925,343.973 195.758,343.973 197.5,341.5C 198.788,343.475 200.455,343.475 202.5,341.5C 204.278,341.569 206.111,341.903 208,342.5C 209.402,340.027 210.902,340.027 212.5,342.5C 214.641,342.112 216.641,342.112 218.5,342.5C 219.748,341.96 220.915,341.293 222,340.5C 222.333,341.167 222.667,341.833 223,342.5C 224.333,341.833 225.667,341.167 227,340.5C 227.499,344.486 227.666,348.486 227.5,352.5C 229.099,352.232 230.432,352.566 231.5,353.5C 201.831,353.667 172.165,353.5 142.5,353C 135.517,350.204 132.85,345.038 134.5,337.5 Z"/></g>
</svg>
