<svg width="24" height="24" viewBox="0 0 24 24" fill="none" xmlns="http://www.w3.org/2000/svg">
<g clip-path="url(#clip0_486_4980)">
<path d="M14.316 11.8744C17.5897 11.8744 20.2527 9.21094 20.2527 5.93719C20.2527 2.66344 17.5897 0 14.316 0C11.0422 0 8.3788 2.66344 8.3788 5.93719C8.3788 9.21094 11.0422 11.8744 14.316 11.8744ZM13.6129 2.44734V2.28609C13.6129 1.8975 13.9274 1.58297 14.316 1.58297C14.7041 1.58297 15.0191 1.8975 15.0191 2.28609V2.44828C15.8558 2.62781 16.4854 3.37313 16.4854 4.26281C16.4854 4.65094 16.1704 4.96594 15.7822 4.96594C15.3936 4.96594 15.0791 4.65094 15.0791 4.26281C15.0791 4.01484 14.8771 3.81281 14.6291 3.81281H13.9986C13.7507 3.81281 13.5486 4.01484 13.5486 4.26281C13.5487 4.3331 13.5653 4.4024 13.5969 4.46515C13.6286 4.52791 13.6745 4.58238 13.731 4.62422L14.316 5.05734L15.7372 6.10922C16.2041 6.45469 16.4854 7.00734 16.4891 7.58859V7.59516C16.4924 8.09109 16.3025 8.55891 15.9538 8.91187C15.695 9.17391 15.3716 9.34969 15.0191 9.42375V9.58828C15.0191 9.97688 14.7041 10.2914 14.316 10.2914C13.9274 10.2914 13.6129 9.97688 13.6129 9.58828V9.42609C13.2697 9.35297 12.9543 9.18422 12.6993 8.93203C12.3463 8.58375 12.1504 8.11875 12.1475 7.62281C12.1452 7.23469 12.4579 6.91781 12.846 6.91547H12.8507C13.2369 6.91547 13.5515 7.22766 13.5538 7.61438C13.554 7.67347 13.5659 7.73193 13.5888 7.78641C13.6117 7.84089 13.6451 7.89032 13.6871 7.93186C13.7292 7.97341 13.779 8.00625 13.8337 8.0285C13.8885 8.05076 13.9471 8.06199 14.0061 8.06156C14.3946 8.05922 14.2499 8.06006 14.6357 8.05781C14.8852 8.05584 15.0848 7.8533 15.0829 7.60453V7.59797C15.0819 7.45734 15.014 7.32328 14.9005 7.23938L14.316 6.80672L12.8943 5.75484C12.4236 5.40609 12.1424 4.84828 12.1424 4.26281C12.1424 3.37125 12.7738 2.62547 13.6129 2.44734ZM4.69625 15.2528C4.51602 14.9403 4.11566 14.8316 3.80127 15.0129L0.49386 16.9222C0.180689 17.1034 0.073251 17.504 0.254048 17.8176L3.63439 23.6723C3.81533 23.9854 4.21564 24.093 4.52938 23.9122L7.83678 22.0025C8.15042 21.8216 8.25744 21.4211 8.07659 21.1075L4.69625 15.2528ZM23.6473 14.0841C23.3291 13.642 22.7131 13.5422 22.2716 13.8605C20.9319 14.8256 18.3594 16.6791 18.155 16.8267C18.0617 16.9063 17.9627 16.9788 17.8588 17.0438C17.4542 17.2983 16.985 17.4342 16.4952 17.4342H13.1272C12.7391 17.4342 12.4241 17.1197 12.4241 16.7311C12.4241 16.342 12.7395 16.028 13.1272 16.028H16.7291C17.2583 16.028 17.682 15.5873 17.66 15.0572C17.6394 14.5542 17.21 14.1642 16.7066 14.1642H13.9648C13.7792 13.9678 13.5758 13.7878 13.3578 13.627C12.6083 13.0744 11.682 12.7477 10.6794 12.7477C8.89672 12.7477 7.12297 13.8708 6.3875 15.3698L9.26375 20.3512H14.6591C15.7184 20.3512 16.7619 20.0803 17.6802 19.552C17.9984 19.3692 18.3392 19.1494 18.7086 18.8841C20.2564 17.7722 23.4209 15.4622 23.4233 15.4608C23.8658 15.143 23.9661 14.5261 23.6473 14.0841Z" fill="#0A1128"/>
</g>
<defs>
<clipPath id="clip0_486_4980">
<rect width="24" height="24" fill="white"/>
</clipPath>
</defs>
</svg>
