<svg width="17" height="17" viewBox="0 0 17 17" fill="none" xmlns="http://www.w3.org/2000/svg">
<g id="Frame" clip-path="url(#clip0_427_1829)">
<g id="Group">
<path id="Vector" d="M10.8 3.29834H2.99848C2.26644 3.29834 1.67188 3.8652 1.67188 4.56314V15.2353C1.67188 15.9332 2.26644 16.5001 2.99848 16.5001H10.8C11.5321 16.5001 12.1267 15.9332 12.1267 15.2353V4.56314C12.1232 3.8652 11.5287 3.29834 10.8 3.29834ZM11.1953 15.232C11.1953 15.4417 11.0166 15.6121 10.7966 15.6121H2.99505C2.77509 15.6121 2.59638 15.4417 2.59638 15.232V4.56314C2.59638 4.35343 2.77509 4.18304 2.99505 4.18304H10.7966C11.0166 4.18304 11.1953 4.35343 11.1953 4.56314V15.232Z" fill="#2176FF"/>
<path id="Vector_2" d="M13.783 0.5H5.98139C5.24935 0.5 4.65479 1.06686 4.65479 1.7648C4.65479 2.01055 4.86099 2.20715 5.11875 2.20715C5.37652 2.20715 5.58272 2.01055 5.58272 1.7648C5.58272 1.55509 5.76144 1.3847 5.98139 1.3847H13.783C14.0029 1.3847 14.1816 1.55509 14.1816 1.7648V12.4369C14.1816 12.6466 14.0029 12.817 13.783 12.817C13.5252 12.817 13.319 13.0136 13.319 13.2594C13.319 13.5051 13.5252 13.7017 13.783 13.7017C14.515 13.7017 15.1096 13.1349 15.1096 12.4369V1.7648C15.1096 1.06686 14.515 0.5 13.783 0.5Z" fill="#2176FF"/>
</g>
</g>
<defs>
<clipPath id="clip0_427_1829">
<rect width="16.782" height="16" fill="white" transform="translate(0 0.5)"/>
</clipPath>
</defs>
</svg>
