<svg id="Capa_1" enable-background="new 0 0 512 512" height="512" viewBox="0 0 512 512" width="512" xmlns="http://www.w3.org/2000/svg"><g><circle cx="316" cy="344.945" r="15"/><circle cx="196" cy="164.945" r="15"/><path d="m488.588 221.107c-17.021-11.133-23.408-34.995-14.253-53.174 8.013-15.864 8.862-29.487 2.505-40.488s-18.574-17.08-36.328-18.091c-20.317-1.143-37.778-18.604-38.921-38.936-1.011-17.739-7.09-29.956-18.091-36.313-11.001-6.313-24.624-5.493-40.488 2.505-18.179 9.082-42.056 2.769-53.188-14.253-19.482-29.736-48.164-29.736-67.646 0-11.147 17.007-34.995 23.379-53.188 14.253-15.879-7.998-29.502-8.818-40.488-2.505-11.001 6.357-17.08 18.574-18.091 36.328-1.143 20.317-18.604 37.778-38.936 38.921-17.739 1.011-29.956 7.09-36.313 18.091s-5.508 24.624 2.505 40.488c9.155 18.179 2.769 42.041-14.268 53.188-14.855 9.757-23.399 21.124-23.399 33.824s8.544 24.082 23.412 33.823c17.021 11.147 23.408 35.01 14.253 53.188-8.013 15.864-8.862 29.487-2.505 40.488s18.574 17.08 36.328 18.091c20.317 1.143 37.778 18.604 38.921 38.936 1.011 17.739 7.09 29.956 18.091 36.313 11.016 6.343 24.609 5.493 40.488-2.505 18.179-9.141 42.026-2.783 53.188 14.268 9.756 14.854 21.123 24.397 33.823 24.397s24.067-9.544 33.838-24.412c11.118-17.051 34.937-23.467 53.174-14.253 15.864 7.998 29.531 8.848 40.488 2.505 11.001-6.357 17.08-18.574 18.091-36.328 1.143-20.317 18.604-37.778 38.936-38.921 17.739-1.011 29.956-7.09 36.313-18.091s5.508-24.624-2.505-40.488c-9.155-18.179-2.769-42.041 14.253-53.188 14.869-9.741 23.413-21.123 23.413-33.823s-8.544-24.067-23.412-33.838zm-292.588-101.162c24.814 0 45 20.186 45 45s-20.186 45-45 45-45-20.186-45-45 20.186-45 45-45zm-18.003 263.994-23.994-17.988 180-240 23.994 17.988zm138.003 6.006c-24.814 0-45-20.186-45-45s20.186-45 45-45 45 20.186 45 45-20.186 45-45 45z"/></g></svg>