<svg width="24" height="24" viewBox="0 0 24 24" fill="none" xmlns="http://www.w3.org/2000/svg">
<g clip-path="url(#clip0_486_4985)">
<path d="M17.9648 0.727966C15.0979 0.727966 13.486 2.71556 12.679 4.21195C11.8698 2.71626 10.2572 0.727966 7.39722 0.727966C3.9834 0.727966 1.40894 3.4964 1.40894 7.16822C1.40894 8.57601 1.84108 9.89592 2.7099 11.2469C3.60386 10.8356 4.58912 10.591 5.63594 10.591C9.52033 10.591 12.681 13.7516 12.681 17.636C12.681 18.4874 12.5058 19.2937 12.2277 20.0499L12.681 20.4423L13.1426 20.0426C14.2908 19.0471 15.3724 18.1472 16.3741 17.314C20.9375 13.5177 24 11.0093 24 7.16826C24 3.49645 21.3786 0.727966 17.9648 0.727966Z" fill="#0A1128"/>
<path d="M5.63602 12C2.52328 12 0 14.5233 0 17.636C0 20.7487 2.52328 23.272 5.63602 23.272C8.74875 23.272 11.272 20.7487 11.272 17.636C11.272 14.5233 8.74875 12 5.63602 12ZM5.63602 16.9315C6.80147 16.9315 7.74952 17.8796 7.74952 19.045C7.74952 20.2105 6.80147 21.1585 5.63602 21.1585C4.47056 21.1585 3.52252 20.2104 3.52252 19.045H4.93153C4.93153 19.4337 5.24733 19.7495 5.63602 19.7495C6.0247 19.7495 6.3405 19.4337 6.3405 19.045C6.3405 18.6563 6.0247 18.3405 5.63602 18.3405C4.47056 18.3405 3.52252 17.3925 3.52252 16.227C3.52252 15.0616 4.47056 14.1135 5.63602 14.1135C6.80147 14.1135 7.74952 15.0616 7.74952 16.227H6.3405C6.3405 15.8384 6.0247 15.5226 5.63602 15.5226C5.24733 15.5226 4.93153 15.8384 4.93153 16.227C4.93153 16.6157 5.24733 16.9315 5.63602 16.9315Z" fill="#0A1128"/>
</g>
<defs>
<clipPath id="clip0_486_4985">
<rect width="24" height="24" fill="white"/>
</clipPath>
</defs>
</svg>
