<svg width="48" height="48" viewBox="0 0 48 48" fill="none" xmlns="http://www.w3.org/2000/svg">
<g id="Frame" clip-path="url(#clip0_381_1792)">
<g id="Group">
<path id="Vector" d="M15.0221 39.6239C13.5701 37.0199 12.8022 33.8279 12.8022 30.3719C12.8022 24.5639 17.8301 19.836 23.9982 19.836C30.1781 19.836 35.1942 24.564 35.1942 30.3719C35.1942 31.032 35.7341 31.572 36.3942 31.572C37.0542 31.572 37.5942 31.032 37.5942 30.3719C37.5942 23.2319 31.4982 17.4359 23.9983 17.4359C16.4984 17.4359 10.4021 23.2439 10.4021 30.3719C10.4021 34.236 11.2781 37.8479 12.9341 40.7999C14.5541 43.6919 15.6822 45.0239 17.7581 47.1239C17.9981 47.3638 18.2981 47.4839 18.6101 47.4839C18.9101 47.4839 19.2221 47.3759 19.4381 47.1239C19.9181 46.6679 19.9181 45.8999 19.4501 45.4319C17.6021 43.572 16.5701 42.384 15.0221 39.6239ZM10.6541 5.78396C14.7701 3.53992 19.2581 2.39996 24.0221 2.39996C28.7981 2.39996 32.7941 3.42 37.3901 5.796C37.5701 5.88003 37.7502 5.92796 37.9422 5.92796C38.3742 5.92796 38.7942 5.688 39.0102 5.27996C39.3102 4.69192 39.0821 3.96 38.4941 3.65996C33.5981 1.12804 29.1341 0 24.0221 0C18.8621 0 13.9781 1.23604 9.50209 3.672C8.91406 3.996 8.71009 4.716 9.02206 5.30403C9.34606 5.89196 10.0661 6.09603 10.6541 5.78396Z" fill="black"/>
<path id="Vector_2" d="M23.914 11.5918C16.174 11.5918 9.09405 15.9238 5.89005 22.6198C4.79802 24.8878 4.24609 27.5038 4.24609 30.3838C4.24609 33.6238 4.82209 36.7198 5.99805 39.8757C6.23802 40.4998 6.92202 40.8117 7.54605 40.5837C8.17009 40.3437 8.48205 39.6597 8.25402 39.0357C6.82594 35.2078 6.65798 32.2558 6.65798 30.3838C6.65798 27.8638 7.12598 25.5958 8.06198 23.6518C10.87 17.7718 17.098 13.9798 23.9259 13.9798C33.514 13.9798 41.3139 21.3359 41.3139 30.3838C41.3139 32.9637 39.0699 35.0517 36.322 35.0517C33.574 35.0517 31.33 32.9517 31.33 30.3838C31.33 26.4837 28.018 23.3158 23.938 23.3158C19.8579 23.3158 16.5459 26.4837 16.5459 30.3838C16.5459 35.1237 18.394 39.5758 21.742 42.9118C24.334 45.4917 26.83 46.9078 30.6579 47.9518C30.7539 47.9878 30.8619 47.9998 30.9699 47.9998C31.4978 47.9998 31.9779 47.6518 32.1219 47.1238C32.3019 46.4878 31.9179 45.8278 31.2818 45.6478C27.8979 44.7238 25.6898 43.4757 23.4218 41.2198C20.5298 38.3398 18.9339 34.4878 18.9339 30.3958C18.9339 27.8159 21.1779 25.7279 23.9258 25.7279C26.6737 25.7279 28.9178 27.8279 28.9178 30.3958C28.9178 34.2959 32.2418 37.4639 36.3098 37.4639C40.3778 37.4639 43.7018 34.2959 43.7018 30.3958C43.7019 20.0278 34.822 11.5918 23.914 11.5918Z" fill="black"/>
<path id="Vector_3" d="M45.382 16.56C42.994 13.2241 39.97 10.608 36.382 8.76007C28.822 4.87207 19.174 4.88411 11.6261 8.78403C8.02606 10.644 4.99002 13.284 2.61402 16.6441C2.23006 17.1841 2.36202 17.928 2.90202 18.3121C3.11802 18.4561 3.35799 18.5281 3.59806 18.5281C3.9701 18.5281 4.34202 18.3601 4.5821 18.0361C6.73006 14.9882 9.47809 12.6001 12.7301 10.9202C19.6061 7.36822 28.4022 7.35618 35.2901 10.8962C38.5301 12.5522 41.2661 14.9282 43.4261 17.9522C43.81 18.4922 44.566 18.6122 45.106 18.2282C45.646 17.844 45.7661 17.1 45.382 16.56ZM38.3141 40.416C37.3541 40.5839 36.3821 40.644 35.8061 40.644C33.4062 40.644 31.4141 40.08 29.7221 38.928C26.8061 36.948 25.0661 33.7561 25.0661 30.384C25.0661 29.724 24.5261 29.184 23.866 29.184C23.206 29.184 22.666 29.724 22.666 30.384C22.666 34.56 24.802 38.496 28.366 40.92C30.442 42.324 32.9501 43.044 35.806 43.044C36.142 43.044 37.33 43.0319 38.734 42.7799C39.382 42.6599 39.8261 42.036 39.706 41.388C39.586 40.74 38.9621 40.296 38.3141 40.416Z" fill="black"/>
</g>
</g>
<defs>
<clipPath id="clip0_381_1792">
<rect width="48" height="48" fill="white"/>
</clipPath>
</defs>
</svg>
