<svg width="24" height="24" viewBox="0 0 24 24" fill="none" xmlns="http://www.w3.org/2000/svg">
<path fill-rule="evenodd" clip-rule="evenodd" d="M15.7719 5.83928V2.57575C15.7719 1.70908 15.0628 1 14.1961 1H12.8187L11.8143 2.73962H6.95756L5.95317 1H4.57575C3.70912 1 3 1.70908 3 2.57575V21.9242C3 22.7909 3.70908 23.5 4.57575 23.5H14.1961C15.0628 23.5 15.7718 22.7909 15.7718 21.9242V18.6608C12.2313 18.6608 9.36113 15.7906 9.36113 12.25C9.36113 8.70944 12.2313 5.83928 15.7719 5.83928ZM9.85177 20.8187C10.1754 20.8187 10.4377 21.081 10.4377 21.4046C10.4377 21.7282 10.1754 21.9905 9.85177 21.9905H8.92013C8.5965 21.9905 8.33419 21.7282 8.33419 21.4046C8.33419 21.081 8.5965 20.8187 8.92013 20.8187H9.85177ZM15.7719 7.01111C12.8864 7.01111 10.533 9.36452 10.533 12.25C10.533 15.1355 12.8864 17.4889 15.7719 17.4889C18.6574 17.4889 21.0108 15.1355 21.0108 12.25C21.0108 9.36452 18.6574 7.01111 15.7719 7.01111ZM18.1303 14.0868C17.9143 14.8195 17.1562 15.2089 16.3587 15.3195V15.981C16.3587 16.3049 16.0966 16.567 15.7712 16.567C15.448 16.567 15.1859 16.3049 15.1859 15.981V15.288C14.2321 15.1044 13.5391 14.5439 13.3578 13.7703C13.2832 13.4553 13.4775 13.1398 13.7917 13.0658C13.8666 13.0481 13.9443 13.0453 14.0202 13.0576C14.0962 13.07 14.169 13.0972 14.2345 13.1377C14.3 13.1781 14.3569 13.2311 14.4018 13.2936C14.4468 13.3561 14.4791 13.4268 14.4967 13.5018C14.6007 13.9457 15.2492 14.1646 15.8073 14.18C16.4445 14.1974 16.9417 13.9747 17.0072 13.7549C17.0524 13.6002 17.0253 13.5205 16.9959 13.4685C16.9462 13.3794 16.7587 13.1511 16.0785 12.9594C15.9452 12.9219 15.796 12.8872 15.6401 12.8507C15.1272 12.7302 14.5442 12.5933 14.1103 12.2614C13.7013 11.9478 13.4595 11.5213 13.4256 11.0604C13.3917 10.6104 13.5589 10.1717 13.8956 9.82525C14.2242 9.48611 14.6912 9.28656 15.1859 9.20041V8.51884C15.1859 8.19541 15.448 7.93291 15.7712 7.93291C16.0966 7.93291 16.3587 8.19541 16.3587 8.51884V9.19614C16.4728 9.21489 16.5833 9.23908 16.6886 9.26847C17.4863 9.49108 18.0286 9.99119 18.1778 10.641C18.2501 10.9564 18.0535 11.2709 17.7372 11.3431C17.4231 11.4158 17.109 11.2188 17.0367 10.9034C16.9644 10.5936 16.5486 10.4464 16.3746 10.3972C15.7757 10.2308 15.0255 10.3424 14.7363 10.641C14.6369 10.744 14.5871 10.8626 14.5939 10.9751C14.6052 11.1326 14.725 11.2559 14.8244 11.3318C15.0571 11.5099 15.5091 11.6159 15.909 11.7096C16.0695 11.7475 16.2367 11.787 16.3949 11.8311C17.2084 12.0603 17.7553 12.4203 18.0219 12.9017C18.2162 13.2551 18.2546 13.6649 18.1303 14.0868ZM11.4656 1L10.9991 1.80798H7.77286L7.30636 1H11.4656Z" fill="#0A1128"/>
</svg>
