<svg width="20" height="20" viewBox="0 0 20 20" fill="none" xmlns="http://www.w3.org/2000/svg">
<path d="M12.3807 14.235C13.9334 14.0512 15.459 13.6847 16.9257 13.1433C15.6836 11.7673 14.9972 9.97875 14.9999 8.125V7.54167V7.5C14.9999 6.17392 14.4731 4.90215 13.5354 3.96447C12.5978 3.02678 11.326 2.5 9.99991 2.5C8.67383 2.5 7.40206 3.02678 6.46438 3.96447C5.52669 4.90215 4.99991 6.17392 4.99991 7.5V8.125C5.00242 9.97886 4.31573 11.7675 3.07324 13.1433C4.51741 13.6767 6.03991 14.0475 7.61908 14.235M12.3807 14.235C10.7991 14.4226 9.20075 14.4226 7.61908 14.235M12.3807 14.235C12.5008 14.6099 12.5307 15.0078 12.4679 15.3964C12.4051 15.785 12.2514 16.1533 12.0194 16.4713C11.7873 16.7893 11.4835 17.048 11.1326 17.2263C10.7816 17.4047 10.3936 17.4976 9.99991 17.4976C9.60626 17.4976 9.21818 17.4047 8.86725 17.2263C8.51632 17.048 8.21247 16.7893 7.98043 16.4713C7.74838 16.1533 7.59471 15.785 7.53192 15.3964C7.46913 15.0078 7.49899 14.6099 7.61908 14.235" stroke="#0A1128" stroke-width="1.2" stroke-linecap="round" stroke-linejoin="round"/>
</svg>
