<svg width="80" height="80" viewBox="0 0 80 80" fill="none" xmlns="http://www.w3.org/2000/svg">
<g id="Frame">
<path id="Vector" d="M55.3767 80.0001H24.6234C22.9967 80.0001 21.5167 79.2434 20.5667 77.9234C19.6167 76.6034 19.3667 74.9601 19.88 73.4167L36.3167 24.1067C36.3795 23.8915 36.485 23.6912 36.627 23.5177C36.769 23.3442 36.9446 23.2012 37.1432 23.0971C37.3418 22.9931 37.5593 22.9301 37.7828 22.9121C38.0062 22.8941 38.231 22.9214 38.4437 22.9923C38.6564 23.0632 38.8526 23.1762 39.0206 23.3247C39.1886 23.4732 39.3248 23.6541 39.4213 23.8565C39.5177 24.0589 39.5723 24.2786 39.5819 24.5026C39.5914 24.7266 39.5556 24.9502 39.4767 25.1601L23.0434 74.4734C22.9584 74.7238 22.9345 74.991 22.9736 75.2525C23.0128 75.514 23.1138 75.7624 23.2684 75.977C23.423 76.1916 23.6266 76.3661 23.8623 76.4861C24.098 76.6061 24.3589 76.668 24.6234 76.6667H55.3767C55.6409 76.6685 55.9017 76.6063 56.1367 76.4856C56.3718 76.3649 56.5742 76.1892 56.7267 75.9734C56.8823 75.7594 56.9844 75.5112 57.0244 75.2497C57.0644 74.9881 57.0412 74.7208 56.9567 74.4701L40.52 25.1601C40.4411 24.9502 40.4053 24.7266 40.4149 24.5026C40.4244 24.2786 40.479 24.0589 40.5754 23.8565C40.6719 23.6541 40.8082 23.4732 40.9761 23.3247C41.1441 23.1762 41.3403 23.0632 41.553 22.9923C41.7657 22.9214 41.9905 22.8941 42.2139 22.9121C42.4374 22.9301 42.6549 22.9931 42.8535 23.0971C43.0521 23.2012 43.2277 23.3442 43.3697 23.5177C43.5117 23.6912 43.6172 23.8915 43.68 24.1067L60.1167 73.4167C60.6334 74.9601 60.3834 76.6034 59.43 77.9234C58.4767 79.2434 57.0034 80.0001 55.3767 80.0001Z" fill="#2176FF"/>
<path id="Vector_2" d="M24.8667 30.3666C24.5948 30.3672 24.327 30.3013 24.0864 30.1747C23.8459 30.048 23.64 29.8644 23.4867 29.6399C21.2067 26.2899 20 22.3833 20 18.3333C20 14.2833 21.2067 10.3766 23.49 7.02661C23.7393 6.6615 24.1234 6.41037 24.5579 6.32848C24.9924 6.24659 25.4416 6.34064 25.8067 6.58994C26.1718 6.83925 26.4229 7.22338 26.5048 7.65784C26.5867 8.0923 26.4926 8.5415 26.2433 8.90661C24.34 11.6966 23.3333 14.9566 23.3333 18.3333C23.3333 21.7099 24.34 24.9699 26.2433 27.7599C26.4144 28.0104 26.5139 28.3028 26.531 28.6056C26.5482 28.9084 26.4824 29.2101 26.3408 29.4783C26.1992 29.7465 25.987 29.9709 25.7273 30.1275C25.4675 30.284 25.17 30.3667 24.8667 30.3666ZM55.1333 30.3666C54.8303 30.3661 54.5332 30.2829 54.2739 30.1262C54.0146 29.9694 53.803 29.7449 53.6618 29.4768C53.5205 29.2087 53.455 28.9072 53.4723 28.6047C53.4897 28.3022 53.5891 28.0102 53.76 27.7599C55.66 24.9699 56.6667 21.7099 56.6667 18.3333C56.6667 14.9566 55.66 11.6966 53.7567 8.90661C53.6332 8.72582 53.5466 8.52249 53.5017 8.30823C53.4569 8.09397 53.4547 7.87296 53.4952 7.65784C53.5358 7.44272 53.6183 7.23769 53.7381 7.05446C53.8578 6.87123 54.0125 6.71339 54.1933 6.58994C54.3741 6.4665 54.5774 6.37988 54.7917 6.33501C55.006 6.29015 55.227 6.28793 55.4421 6.32848C55.6572 6.36903 55.8623 6.45155 56.0455 6.57134C56.2287 6.69112 56.3866 6.84582 56.51 7.02661C58.7933 10.3766 60 14.2833 60 18.3333C60 22.3833 58.7933 26.2899 56.51 29.6399C56.357 29.864 56.1516 30.0472 55.9117 30.1739C55.6718 30.3005 55.4046 30.3667 55.1333 30.3666ZM16.6367 35.9999C16.3657 36.0004 16.0987 35.9347 15.8588 35.8087C15.6189 35.6826 15.4134 35.5 15.26 35.2766C11.82 30.2633 10 24.4066 10 18.3333C10 12.2599 11.82 6.40328 15.26 1.38994C15.5152 1.03822 15.8977 0.800089 16.326 0.726311C16.7543 0.652534 17.1944 0.748944 17.5526 0.994991C17.9108 1.24104 18.1587 1.61726 18.2436 2.04347C18.3284 2.46968 18.2434 2.91217 18.0067 3.27661C14.95 7.72994 13.3333 12.9366 13.3333 18.3333C13.3333 23.7299 14.95 28.9366 18.0067 33.3899C18.1783 33.6399 18.2785 33.932 18.2964 34.2348C18.3143 34.5375 18.2493 34.8394 18.1084 35.1079C17.9674 35.3764 17.7559 35.6014 17.4966 35.7586C17.2372 35.9158 16.9399 35.9992 16.6367 35.9999ZM63.3633 35.9999C63.0598 35.9998 62.7621 35.9168 62.5022 35.7599C62.2424 35.6029 62.0304 35.378 61.8891 35.1094C61.7477 34.8407 61.6824 34.5386 61.7002 34.2356C61.718 33.9326 61.8182 33.6402 61.99 33.3899C65.05 28.9366 66.6667 23.7299 66.6667 18.3333C66.6667 12.9366 65.05 7.72994 61.9933 3.27661C61.8627 3.09653 61.7694 2.89211 61.719 2.6754C61.6685 2.45869 61.662 2.23408 61.6998 2.01482C61.7376 1.79555 61.8189 1.58607 61.9389 1.39872C62.0589 1.21137 62.2152 1.04995 62.3986 0.923978C62.582 0.798003 62.7888 0.710025 63.0067 0.665231C63.2247 0.620436 63.4494 0.619732 63.6676 0.66316C63.8858 0.706588 64.0931 0.793269 64.2773 0.918091C64.4615 1.04291 64.6188 1.20335 64.74 1.38994C68.18 6.40328 70 12.2599 70 18.3333C70 24.4066 68.18 30.2633 64.74 35.2766C64.5866 35.5 64.3811 35.6826 64.1412 35.8087C63.9013 35.9347 63.6343 36.0004 63.3633 35.9999ZM40 26.6666C35.4067 26.6666 31.6667 22.9266 31.6667 18.3333C31.6667 13.7399 35.4067 9.99994 40 9.99994C44.5933 9.99994 48.3333 13.7399 48.3333 18.3333C48.3333 22.9266 44.5933 26.6666 40 26.6666ZM40 13.3333C37.2433 13.3333 35 15.5766 35 18.3333C35 21.0899 37.2433 23.3333 40 23.3333C42.7567 23.3333 45 21.0899 45 18.3333C45 15.5766 42.7567 13.3333 40 13.3333Z" fill="#0A55EB"/>
<path id="Vector_3" d="M21.6668 78.1634C21.287 78.163 20.9187 78.0329 20.6229 77.7947C20.3271 77.5565 20.1216 77.2244 20.0403 76.8534C19.959 76.4824 20.0069 76.0948 20.176 75.7547C20.3451 75.4146 20.6252 75.1425 20.9701 74.9834L50.1201 61.5801L28.3401 53.0334C28.0478 52.9185 27.794 52.7234 27.6078 52.4706C27.4215 52.2177 27.3105 51.9174 27.2875 51.6042C27.2646 51.2911 27.3305 50.9778 27.4778 50.7004C27.6251 50.4231 27.8477 50.193 28.1201 50.0367L46.6701 39.3867C46.8601 39.2777 47.0697 39.2072 47.2869 39.1792C47.5041 39.1512 47.7247 39.1663 47.9361 39.2235C48.1476 39.2808 48.3456 39.3791 48.519 39.5129C48.6924 39.6468 48.8378 39.8134 48.9468 40.0034C49.0558 40.1934 49.1263 40.403 49.1543 40.6202C49.1823 40.8374 49.1672 41.058 49.1099 41.2694C49.0527 41.4808 48.9543 41.6789 48.8205 41.8523C48.6867 42.0257 48.5201 42.1711 48.3301 42.2801L32.7901 51.2L54.9834 59.9067C55.287 60.0266 55.5486 60.2329 55.736 60.5001C55.9233 60.7673 56.0281 61.0836 56.0374 61.4098C56.0466 61.736 55.9599 62.0577 55.7879 62.3351C55.616 62.6125 55.3664 62.8332 55.0701 62.9701L22.3601 78.0067C22.1436 78.1102 21.9067 78.1637 21.6668 78.1634Z" fill="#2176FF"/>
</g>
</svg>
