<svg width="24" height="24" viewBox="0 0 24 24" fill="none" xmlns="http://www.w3.org/2000/svg">
<path d="M13.3447 10.1165C13.1511 9.98085 12.8838 9.86322 12.563 9.79794V11.3755C12.8838 11.3102 13.1505 11.1931 13.3447 11.0575C13.6463 10.8464 13.6886 10.663 13.6886 10.587C13.6886 10.511 13.6463 10.3275 13.3447 10.1165ZM11.4374 6.98395C11.1166 7.0498 10.8498 7.16686 10.6556 7.30249C10.354 7.51354 10.3118 7.69701 10.3118 7.77299C10.3118 7.84897 10.354 8.03244 10.6556 8.24349C10.8492 8.37913 11.1166 8.49675 11.4374 8.56203V6.98395Z" fill="#0A1128"/>
<path fill-rule="evenodd" clip-rule="evenodd" d="M17.4986 12.9412C18.6752 11.6278 19.3227 9.92467 19.3159 8.16135C19.3159 4.12046 16.0404 0.844971 11.9995 0.844971C7.95859 0.844971 4.68311 4.12046 4.68311 8.16135C4.68311 10.0124 5.37028 11.6805 6.50432 12.9451C6.89201 13.5342 7.22453 14.1578 7.49766 14.808C7.84209 15.6392 8.15501 16.7817 8.36324 17.622H15.6374C15.8456 16.7817 16.158 15.6392 16.5024 14.808C16.7762 14.1564 17.1097 13.5314 17.4986 12.9412ZM12 4.67763C12.1493 4.67763 12.2925 4.73692 12.398 4.84247C12.5036 4.94801 12.5628 5.09116 12.5628 5.24043V5.84262C13.4082 5.96249 14.1162 6.34801 14.5011 6.86973C14.7127 7.15619 14.4522 7.49162 14.0959 7.49162H13.8179C13.6541 7.49162 13.5005 7.41564 13.3676 7.31884C13.36 7.31315 13.3523 7.30752 13.3446 7.30195C13.151 7.16688 12.8836 7.04982 12.5628 6.98397V8.65661C13.8472 8.83896 14.814 9.63419 14.814 10.587C14.814 11.5398 13.8472 12.3351 12.5628 12.5174V13.1196C12.5628 13.2689 12.5036 13.412 12.398 13.5176C12.2925 13.6231 12.1493 13.6824 12 13.6824C11.8508 13.6824 11.7076 13.6231 11.6021 13.5176C11.4965 13.412 11.4372 13.2689 11.4372 13.1196V12.5174C10.5919 12.3975 9.88392 12.012 9.49897 11.4903C9.28736 11.2038 9.54793 10.8684 9.90419 10.8684H10.1822C10.3465 10.8684 10.4996 10.9444 10.6324 11.0412L10.6431 11.0485L10.6555 11.0575C10.8491 11.1931 11.1165 11.3108 11.4372 11.3761V9.70341C10.1529 9.52107 9.18606 8.72583 9.18606 7.77302C9.18606 6.8202 10.1529 6.02497 11.4372 5.84262V5.24043C11.4372 5.09116 11.4965 4.94801 11.6021 4.84247C11.7076 4.73692 11.8508 4.67763 12 4.67763Z" fill="#0A1128"/>
<path d="M15.3769 18.7476H8.62329V19.8709L15.3302 19.312L15.3769 19.3104V18.7476ZM15.3769 20.4382L8.67 20.9971C8.65446 20.9983 8.63888 20.9988 8.62329 20.9988C8.62329 21.4465 8.80117 21.876 9.11781 22.1926C9.43445 22.5093 9.8639 22.6871 10.3117 22.6871H10.8745C10.8745 22.8364 10.9338 22.9796 11.0393 23.0851C11.1449 23.1907 11.288 23.2499 11.4373 23.2499H12.5629C12.7121 23.2499 12.8553 23.1907 12.9608 23.0851C13.0664 22.9796 13.1257 22.8364 13.1257 22.6871H13.6885C14.1363 22.6871 14.5657 22.5093 14.8824 22.1926C15.199 21.876 15.3769 21.4465 15.3769 20.9988V20.4382Z" fill="#0A1128"/>
</svg>
