<svg width="150" height="150" viewBox="0 0 150 150" fill="none" xmlns="http://www.w3.org/2000/svg">
<g id="Frame" clip-path="url(#clip0_396_1097)">
<g id="Group">
<path id="Vector" d="M105.882 0V44.1176H150V0H105.882ZM141.176 35.2941H114.706V8.82353H141.176V35.2941Z" fill="#0A1128"/>
<path id="Vector_2" d="M123.529 17.647H132.353V26.4705H123.529V17.647ZM105.882 150H150V105.882H105.882V150ZM114.706 114.706H141.176V141.176H114.706V114.706Z" fill="#0A1128"/>
<path id="Vector_3" d="M123.529 123.529H132.353V132.353H123.529V123.529ZM0 150H44.1176V105.882H0V150ZM8.82353 114.706H35.2941V141.176H8.82353V114.706Z" fill="#0A1128"/>
<path id="Vector_4" d="M17.6471 123.529H26.4706V132.353H17.6471V123.529ZM52.9412 141.176H75V150H52.9412V141.176ZM52.9412 123.529H66.1765V132.353H52.9412V123.529ZM26.4706 88.2352H35.2941V97.0587H26.4706V88.2352ZM17.6471 88.2352H8.82353V70.5882H0V97.0587H17.6471V88.2352ZM141.176 88.2352H132.353V97.0587H150V70.5882H141.176V88.2352ZM105.882 88.2352H123.529V97.0587H105.882V88.2352ZM75 88.2352H97.0588V97.0587H75V88.2352ZM83.8235 141.176H97.0588V150H83.8235V141.176ZM88.2353 123.529H75V132.353H97.0588V105.882H88.2353V123.529ZM52.9412 114.706H75V105.882H61.7647V88.2352H44.1179V97.0587H52.9412V114.706ZM83.8235 17.647H97.0588V26.4705H83.8235V17.647ZM105.882 52.9411H114.706V61.7646H105.882V52.9411ZM105.882 70.5882H114.706V79.4117H105.882V70.5882Z" fill="#0A1128"/>
<path id="Vector_5" d="M123.529 79.4118H132.353V61.7647H150V52.9412H123.529V79.4118ZM75 44.1176H88.2353V79.4118H97.0588V35.2941H75V44.1176ZM35.2941 79.4118H75V70.5882H44.1176V61.7647H35.2941V79.4118ZM17.6471 79.4118H26.4706V52.9412H0V61.7647H17.6471V79.4118ZM35.2941 35.2941H44.1176V52.9412H35.2941V35.2941ZM52.9412 52.9412H75V61.7647H52.9412V52.9412ZM61.7647 26.4706H75V17.6471H52.9412V44.1176H61.7647V26.4706ZM75 0H97.0588V8.82353H75V0ZM8.82353 8.82353H26.4706V0H0V26.4706H8.82353V8.82353ZM52.9412 0H66.1765V8.82353H52.9412V0Z" fill="#0A1128"/>
<path id="Vector_6" d="M17.6471 26.4706H44.1176V0H35.2941V17.6471H17.6471V26.4706ZM0 35.2941H26.4706V44.1176H0V35.2941Z" fill="#0A1128"/>
</g>
</g>
<defs>
<clipPath id="clip0_396_1097">
<rect width="150" height="150" fill="white"/>
</clipPath>
</defs>
</svg>
