<svg width="24" height="24" viewBox="0 0 24 24" fill="none" xmlns="http://www.w3.org/2000/svg">
<path d="M19.0516 5.71565L21.4881 4.92629C22.4433 4.61674 23.2798 5.64349 22.7835 6.51601L15.6416 19.0697C15.5011 19.3167 15.2705 19.4998 14.9981 19.5806C14.7256 19.6614 14.4325 19.6336 14.1801 19.5031L11.2732 17.9999L11.6268 17.3878L11.6296 17.383L11.6305 17.3812L11.6309 17.3805L11.6323 17.3786C11.7779 17.1612 12.7382 15.7279 13.5951 14.4565C16.8289 13.7235 19.243 10.8327 19.243 7.3782C19.243 6.8062 19.177 6.24959 19.0516 5.71565ZM11.5429 7.0482V5.61863H10.6898C10.4374 5.61863 10.2784 5.71103 10.1772 5.82763C10.0678 5.95369 10.0029 6.13563 10.0029 6.33341C10.0029 6.53141 10.0678 6.71314 10.177 6.83898C10.2786 6.95602 10.4374 7.0482 10.6896 7.0482H11.5429ZM12.4229 7.92776H13.2761C13.5284 7.92776 13.6875 8.02016 13.7887 8.1372C13.898 8.26304 13.9629 8.44498 13.9629 8.64277C13.9629 8.84077 13.898 9.02249 13.7889 9.14833C13.6873 9.26537 13.5284 9.35755 13.2761 9.35755H12.4229V7.92776Z" fill="#0A1128"/>
<path fill-rule="evenodd" clip-rule="evenodd" d="M18.3631 7.37821C18.3631 3.95345 15.4712 0.999939 11.9831 0.999939C8.45952 0.999939 5.60303 3.85555 5.60303 7.37821C5.60303 9.49726 6.63681 11.375 8.22764 12.5348C9.31789 13.3306 10.6333 13.7584 11.9831 13.7563C15.4155 13.7563 18.3631 10.8659 18.3631 7.37821ZM9.51245 5.25146C9.78657 4.93532 10.1909 4.73886 10.6899 4.73886H11.5431V4.29886C11.5431 4.18216 11.5894 4.07024 11.6719 3.98773C11.7544 3.90521 11.8664 3.85885 11.9831 3.85885C12.0998 3.85885 12.2117 3.90521 12.2942 3.98773C12.3767 4.07024 12.4231 4.18216 12.4231 4.29886V4.73886H13.9202C13.9788 4.73755 14.037 4.74796 14.0915 4.76947C14.1461 4.79099 14.1957 4.82318 14.2376 4.86416C14.2795 4.90514 14.3128 4.95408 14.3356 5.0081C14.3583 5.06212 14.37 5.12014 14.37 5.17875C14.37 5.23736 14.3583 5.29538 14.3356 5.3494C14.3128 5.40342 14.2795 5.45236 14.2376 5.49334C14.1957 5.53431 14.1461 5.56651 14.0915 5.58803C14.037 5.60954 13.9788 5.61995 13.9202 5.61864H12.4231V7.04821H13.2762C13.7752 7.04821 14.1796 7.24467 14.4539 7.56081C14.7199 7.86793 14.8431 8.26328 14.8431 8.64278C14.8431 9.02228 14.7203 9.41762 14.4537 9.72474C14.1796 10.0409 13.7752 10.2373 13.2762 10.2373H12.4231V10.6773C12.4231 10.794 12.3767 10.906 12.2942 10.9885C12.2117 11.071 12.0998 11.1173 11.9831 11.1173C11.8664 11.1173 11.7544 11.071 11.6719 10.9885C11.5894 10.906 11.5431 10.794 11.5431 10.6773V10.2373H9.88733C9.82873 10.2387 9.77047 10.2282 9.71595 10.2067C9.66143 10.1852 9.61176 10.153 9.56986 10.112C9.52796 10.0711 9.49466 10.0221 9.47193 9.9681C9.4492 9.91408 9.43749 9.85606 9.43749 9.79745C9.43749 9.73884 9.4492 9.68082 9.47193 9.6268C9.49466 9.57278 9.52796 9.52384 9.56986 9.48286C9.61176 9.44189 9.66143 9.40969 9.71595 9.38818C9.77047 9.36666 9.82873 9.35625 9.88733 9.35756H11.5431V7.92799H10.6899C10.1909 7.92799 9.78657 7.73153 9.51223 7.41539C9.24625 7.10827 9.12304 6.71293 9.12304 6.33343C9.12304 5.95392 9.24581 5.55858 9.51245 5.25146Z" fill="#0A1128"/>
<path d="M8.13518 13.5268C9.40965 14.3245 10.9224 14.7051 12.4223 14.6158C10.7202 17.146 9.21649 19.7968 7.70552 22.443C7.46154 22.87 7.03936 23.0357 6.64027 22.9937C6.12217 22.9391 5.64279 22.5345 5.64279 21.8963V15.3739C5.64279 14.9438 5.89359 14.5533 6.28475 14.374L8.13518 13.5268ZM7.31876 12.9403C6.42921 12.1946 5.73094 11.2469 5.28221 10.1764L2.17051 11.1844C1.24079 11.4858 1.13629 12.7585 2.00419 13.2073L4.88489 14.6968C4.97511 14.4519 5.11285 14.2273 5.2902 14.0359C5.46754 13.8445 5.68097 13.69 5.91823 13.5814L7.31876 12.9403ZM10.8333 18.7628C10.2483 19.779 9.66111 20.8029 9.11441 21.7584L12.4344 19.5909L10.8333 18.7628Z" fill="#0A1128"/>
</svg>
