<svg width="200" height="200" viewBox="0 0 200 200" fill="none" xmlns="http://www.w3.org/2000/svg">
<g id="Frame">
<path id="Vector" d="M75 106.25L93.75 125L125 81.25M175 100C175 109.849 173.06 119.602 169.291 128.701C165.522 137.801 159.997 146.069 153.033 153.033C146.069 159.997 137.801 165.522 128.701 169.291C119.602 173.06 109.849 175 100 175C90.1509 175 80.3982 173.06 71.2987 169.291C62.1993 165.522 53.9314 159.997 46.967 153.033C40.0026 146.069 34.4781 137.801 30.709 128.701C26.9399 119.602 25 109.849 25 100C25 80.1088 32.9018 61.0322 46.967 46.967C61.0322 32.9018 80.1088 25 100 25C119.891 25 138.968 32.9018 153.033 46.967C167.098 61.0322 175 80.1088 175 100Z" stroke="#00CC66" stroke-width="6.5" stroke-linecap="round" stroke-linejoin="round"/>
</g>
</svg>
