<svg width="15" height="17" viewBox="0 0 15 17" fill="none" xmlns="http://www.w3.org/2000/svg">
<path d="M7.16206 8.8084C9.44779 8.8084 11.3163 6.93993 11.3163 4.6542C11.3163 2.36847 9.44779 0.5 7.16206 0.5C4.87633 0.5 3.00789 2.36847 3.00789 4.6542C3.00789 6.93993 4.87636 8.8084 7.16206 8.8084ZM14.2913 12.1281C14.1825 11.856 14.0374 11.602 13.8741 11.3662C13.0396 10.1326 11.7517 9.31632 10.3004 9.11677C10.119 9.09865 9.91949 9.1349 9.77435 9.24375C9.01244 9.80611 8.10543 10.0964 7.16209 10.0964C6.21876 10.0964 5.31175 9.80611 4.54984 9.24375C4.4047 9.1349 4.20515 9.08049 4.02376 9.11677C2.57251 9.31632 1.2664 10.1326 0.450079 11.3662C0.286815 11.602 0.141676 11.8742 0.0328568 12.1281C-0.0215529 12.237 -0.00342797 12.364 0.0509818 12.4728C0.196121 12.7268 0.37751 12.9808 0.540773 13.1984C0.794732 13.5431 1.06685 13.8515 1.37525 14.1417C1.62921 14.3957 1.91945 14.6315 2.20973 14.8674C3.64282 15.9377 5.36619 16.5 7.14397 16.5C8.92175 16.5 10.6451 15.9376 12.0782 14.8674C12.3684 14.6497 12.6587 14.3957 12.9127 14.1417C13.2029 13.8515 13.4932 13.5431 13.7472 13.1984C13.9286 12.9626 14.0919 12.7268 14.237 12.4728C14.3276 12.364 14.3457 12.2369 14.2913 12.1281Z" fill="#2176FF"/>
</svg>
